<svg xmlns="http://www.w3.org/2000/svg" width="380" height="380" viewBox="0 0 380 380" version="1.1">
	<path d="M 255 16 C 255 16.550, 255.450 17, 256 17 C 256.550 17, 257 16.550, 257 16 C 257 15.450, 256.550 15, 256 15 C 255.450 15, 255 15.450, 255 16 M 145.750 22.662 C 146.438 22.940, 147.563 22.940, 148.250 22.662 C 148.938 22.385, 148.375 22.158, 147 22.158 C 145.625 22.158, 145.063 22.385, 145.750 22.662 M 161.457 26.748 C 161.756 27.527, 162 28.352, 162 28.582 C 162 28.812, 162.450 29, 163 29 C 163.550 29, 164 28.175, 164 27.167 C 164 26.158, 163.306 25.333, 162.457 25.333 C 161.537 25.333, 161.133 25.905, 161.457 26.748 M 140.158 29 C 140.158 30.375, 140.385 30.938, 140.662 30.250 C 140.940 29.563, 140.940 28.438, 140.662 27.750 C 140.385 27.063, 140.158 27.625, 140.158 29 M 147 31 C 147 33.200, 147.450 35, 148 35 C 148.550 35, 149 33.650, 149 32 C 149 30.350, 149.450 29, 150 29 C 150.550 29, 151 28.550, 151 28 C 151 27.450, 150.100 27, 149 27 C 147.333 27, 147 27.667, 147 31 M 161.250 34.496 C 160.563 35.277, 160 36.610, 160 37.458 C 160 38.433, 159.088 39, 157.518 39 C 155.049 39, 155.054 39.019, 158.434 42.500 C 160.304 44.425, 162.623 46, 163.588 46 C 166.006 46, 168.981 48.885, 168.326 50.594 C 168.029 51.367, 168.284 52, 168.893 52 C 169.502 52, 170 51.199, 170 50.221 C 170 49.242, 170.890 47.800, 171.978 47.016 C 173.427 45.972, 173.627 45.386, 172.728 44.826 C 171.761 44.224, 171.770 43.626, 172.768 42.015 C 173.892 40.202, 173.639 39.572, 170.551 36.485 C 166.881 32.815, 163.388 32.068, 161.250 34.496 M 221 34 C 221 34.550, 220.127 35, 219.059 35 C 217.991 35, 216.840 35.450, 216.500 36 C 216.160 36.550, 214.919 37, 213.741 37 C 212.127 37, 211.883 37.283, 212.751 38.151 C 213.618 39.018, 213.561 40.116, 212.518 42.612 L 211.134 45.923 214.317 45.452 C 216.068 45.193, 216.938 45.247, 216.250 45.574 C 214.012 46.635, 214.931 48, 217.883 48 C 222.325 48, 222.882 53.027, 218.500 53.571 C 217.950 53.640, 216.968 53.764, 216.317 53.848 C 215.667 53.931, 214.849 54.900, 214.500 56 C 214.151 57.100, 213.221 58, 212.433 58 C 211.645 58, 211 58.257, 211 58.571 C 211 59.687, 213.879 62, 215.268 62 C 216.044 62, 217.203 63.150, 217.844 64.556 C 219.428 68.034, 221 66.732, 221 61.941 C 221 59.105, 221.420 58, 222.500 58 C 223.325 58, 224 58.450, 224 59 C 224 59.550, 224.675 60, 225.500 60 C 226.325 60, 227 59.550, 227 59 C 227 58.450, 226.325 58, 225.500 58 C 223.503 58, 223.570 54.379, 225.582 53.607 C 227.817 52.749, 228 52.817, 228 54.500 C 228 55.333, 228.889 56, 230 56 C 231.100 56, 232 56.450, 232 57 C 232 57.550, 232.900 58, 234 58 C 235.704 58, 236 58.667, 236 62.512 L 236 67.024 240.250 66.349 C 242.588 65.977, 244.984 65.017, 245.576 64.214 C 247.055 62.210, 251 63.558, 251 66.067 C 251 67.130, 250.325 68, 249.500 68 C 248.675 68, 248 68.620, 248 69.378 C 248 70.135, 248.675 71.315, 249.500 72 C 250.325 72.685, 251 73.640, 251 74.122 C 251 74.605, 250.325 75, 249.500 75 C 247.558 75, 247.603 75.904, 249.661 78.177 C 251.917 80.670, 250.704 81.534, 247.065 80.027 C 244.141 78.816, 242.438 76.026, 242.775 73 C 242.879 72.066, 242.736 71.962, 242.396 72.724 C 241.984 73.648, 241.262 73.563, 239.452 72.376 C 237.267 70.945, 236.910 70.947, 235.455 72.402 C 232.815 75.042, 228 74.105, 228 70.952 C 228 69.943, 227.550 68.840, 227 68.500 C 226.450 68.160, 226 67.009, 226 65.941 C 226 64.873, 225.550 64, 225 64 C 224.450 64, 224 64.914, 224 66.031 C 224 67.149, 223.325 68.322, 222.500 68.638 C 221.675 68.955, 221 69.841, 221 70.607 C 221 72.526, 217.054 72.359, 214.829 70.345 C 213.127 68.805, 213 68.805, 213 70.345 C 213 71.517, 212.125 72, 210 72 C 208 72, 207 71.500, 207 70.500 C 207 69.675, 207.450 69, 208 69 C 208.550 69, 209 67.140, 209 64.867 C 209 61.844, 208.405 60.218, 206.782 58.811 C 204.916 57.192, 204.797 56.740, 206.032 55.959 C 206.954 55.376, 207.052 55.025, 206.295 55.015 C 204.179 54.988, 200.029 50.089, 200.681 48.389 C 201.564 46.087, 199.233 45.033, 193.219 45.015 C 189.231 45.004, 187.783 45.403, 187.306 46.645 C 186.949 47.576, 187.315 48.769, 188.149 49.395 C 188.960 50.003, 189.919 51.288, 190.281 52.250 C 190.662 53.268, 191.972 54, 193.410 54 C 194.769 54, 196.160 54.450, 196.500 55 C 197.318 56.324, 184.993 56.328, 181.514 55.005 C 179.337 54.177, 178.517 54.392, 176.623 56.286 C 173.135 59.775, 172.797 62.567, 175.609 64.679 C 176.924 65.667, 178 67.013, 178 67.670 C 178 68.327, 178.900 69.151, 180 69.500 C 182.352 70.246, 182.617 71.826, 180.526 72.629 C 179.022 73.206, 176 70.912, 176 69.193 C 176 68.670, 174.699 67.704, 173.109 67.045 C 169.704 65.635, 166 67.300, 166 70.241 C 166 71.299, 165.247 72, 164.111 72 C 162.939 72, 162.275 72.651, 162.361 73.716 C 162.447 74.773, 161.540 75.674, 160 76.063 C 155.160 77.286, 153 78.243, 153 79.162 C 153 80.149, 148.467 85, 147.545 85 C 147.245 85, 147 84.100, 147 83 C 147 81.900, 147.450 81, 148 81 C 148.550 81, 149 80.550, 149 80 C 149 79.450, 148.100 79, 147 79 C 145.829 79, 145 79.667, 145 80.608 C 145 81.863, 144.396 82.065, 142.256 81.528 C 136.947 80.196, 135.623 77.072, 140.309 76.937 C 142.485 76.874, 142.484 76.867, 140.188 75.946 C 138.916 75.436, 137.244 74.452, 136.472 73.759 C 132.093 69.829, 132 69.800, 132 72.354 C 132 73.691, 131.327 75.044, 130.504 75.360 C 128.204 76.243, 131.808 82.863, 134.242 82.226 C 136.673 81.591, 136.494 84.210, 134 85.768 C 132.900 86.455, 132.036 87.576, 132.079 88.258 C 132.141 89.238, 132.264 89.236, 132.662 88.250 C 133.260 86.769, 137 86.553, 137 88 C 137 88.550, 137.801 89, 138.779 89 C 139.758 89, 141.207 89.900, 142 91 C 143.489 93.066, 147 93.768, 147 92 C 147 91.450, 147.900 91, 149 91 C 150.100 91, 151 91.450, 151 92 C 151 92.550, 151.900 93, 153 93 C 154.333 93, 155 92.333, 155 91 C 155 89.667, 155.667 89, 157 89 C 158.100 89, 159 89.519, 159 90.153 C 159 90.787, 159.961 90.225, 161.135 88.903 C 162.562 87.297, 163.418 86.914, 163.718 87.750 C 163.965 88.438, 165.029 89, 166.083 89 C 167.137 89, 168 89.450, 168 90 C 168 90.550, 167.601 91, 167.114 91 C 166.627 91, 165.494 92.547, 164.596 94.438 C 162.978 97.848, 159.957 99.709, 158.001 98.501 C 156.809 97.764, 158.476 95.851, 161.500 94.484 C 163.173 93.728, 162.864 93.522, 159.605 93.221 C 154.595 92.759, 152.115 94.868, 153.725 98.220 C 155.745 102.431, 156.074 104.193, 154.751 103.719 C 153.245 103.179, 150 104.712, 150 105.964 C 150 106.455, 150.785 107.643, 151.746 108.603 C 153.406 110.263, 153.333 110.317, 150.246 109.699 C 147.758 109.202, 147 109.395, 147 110.525 C 147 111.336, 146.100 112, 145 112 C 143.667 112, 143 112.667, 143 114 C 143 115.453, 142.333 116, 140.562 116 C 138.523 116, 138.154 116.450, 138.312 118.750 C 138.575 122.602, 135.711 122.394, 134.878 118.500 C 134.382 116.179, 134.210 116.009, 134.118 117.750 C 134.053 118.987, 133.580 120, 133.067 120 C 132.554 120, 131.849 120.900, 131.500 122 C 131.151 123.100, 130.269 124, 129.540 124 C 128.811 124, 127.944 124.704, 127.614 125.563 C 126.762 127.785, 124.792 126.230, 125.527 123.916 C 125.867 122.845, 125.664 122, 125.067 122 C 124.480 122, 124 123.350, 124 125 C 124 127.833, 123.778 128, 120 128 C 117.216 128, 116 127.569, 116 126.583 C 116 125.804, 116.563 124.940, 117.250 124.662 C 117.938 124.385, 117.049 124.122, 115.275 124.079 C 112.214 124.004, 112.080 124.152, 112.650 127 C 113.041 128.954, 112.846 130, 112.090 130 C 111.247 130, 111.217 130.537, 111.980 131.963 C 112.630 133.176, 113.629 133.696, 114.599 133.324 C 115.838 132.848, 115.893 132.552, 114.863 131.915 C 112.594 130.513, 114.625 129.872, 117.371 131.123 C 119.119 131.920, 120 133.105, 120 134.661 C 120 137.275, 120.333 137.427, 122.966 136.018 C 124.290 135.310, 124.941 135.405, 125.307 136.359 C 125.634 137.210, 126.917 137.519, 128.907 137.227 C 131.799 136.802, 132 136.975, 132 139.887 C 132 141.987, 131.512 143, 130.500 143 C 129.675 143, 129 142.550, 129 142 C 129 141.450, 127.875 141, 126.500 141 C 125.125 141, 124 140.550, 124 140 C 124 139.450, 123.100 139, 122 139 C 120.900 139, 120 139.450, 120 140 C 120 140.550, 119.265 141, 118.367 141 C 117.469 141, 115.911 141.949, 114.905 143.109 C 113.259 145.007, 112.922 145.065, 111.538 143.681 C 110.692 142.835, 110 141.436, 110 140.571 C 110 139.707, 109.550 139, 109 139 C 108.450 139, 108 137.595, 108 135.878 C 108 132.870, 107.918 132.810, 105.750 134.230 C 104.512 135.041, 102.913 136.896, 102.195 138.352 C 101.334 140.100, 100.088 141, 98.529 141 C 97.230 141, 95.940 141.563, 95.662 142.250 C 95.373 142.967, 95.124 142.718, 95.079 141.667 C 95.035 140.650, 94.443 140.031, 93.750 140.277 C 93.063 140.521, 92.607 141.683, 92.738 142.860 C 92.869 144.037, 92.532 145, 91.988 145 C 91.445 145, 91 143.200, 91 141 C 91 137.667, 91.333 137, 93 137 C 94.100 137, 95 137.597, 95 138.327 C 95 139.232, 95.953 139.514, 98 139.213 C 100.023 138.916, 101 138.203, 101 137.022 C 101 135.707, 99.887 135.119, 96.524 134.658 C 94.061 134.321, 91.361 134.308, 90.524 134.629 C 89.360 135.076, 89 134.479, 89 132.107 C 89 128.525, 87.353 127.912, 86.697 131.250 L 86.254 133.500 85.510 131.250 C 85.101 130.012, 84.482 129.015, 84.133 129.033 C 82.644 129.111, 78.946 133.011, 78 135.501 C 77.321 137.285, 76.467 138.010, 75.486 137.633 C 74.669 137.319, 74 137.446, 74 137.915 C 74 138.965, 70.948 139.825, 69.250 139.254 C 68.563 139.023, 68 137.746, 68 136.417 C 68 134.329, 67.558 134.019, 64.750 134.136 C 62.400 134.235, 62.123 134.392, 63.750 134.706 C 66.053 135.149, 66.792 137.392, 65 138.500 C 64.450 138.840, 64 138.641, 64 138.059 C 64 136.174, 60.974 136.935, 58.455 139.455 C 55.474 142.435, 55.264 145, 58 145 C 60.141 145, 60.753 146.582, 58.857 147.214 C 58.014 147.495, 58.038 148.203, 58.949 149.905 C 59.843 151.575, 59.883 152.517, 59.093 153.307 C 57.725 154.675, 57.667 157, 59 157 C 59.550 157, 60 156.142, 60 155.094 C 60 153.423, 60.303 153.331, 62.454 154.344 C 64.181 155.158, 65.095 156.610, 65.541 159.250 C 65.988 161.889, 66.668 162.970, 67.838 162.900 C 70.151 162.762, 74.780 161.222, 73.250 161.100 C 72.563 161.045, 72 160.363, 72 159.583 C 72 158.804, 71.438 157.940, 70.750 157.662 C 70.047 157.379, 70.321 157.123, 71.375 157.079 C 72.916 157.014, 73.143 156.465, 72.650 154 C 71.956 150.529, 73.346 150.097, 76.605 152.772 C 79.281 154.969, 80.153 157.447, 78.745 158.855 C 77.948 159.652, 78.149 160.507, 79.479 161.976 C 81.284 163.971, 81.260 164, 77.800 164 C 75.072 164, 73.701 164.711, 71.645 167.193 C 70.190 168.949, 69 171.199, 69 172.193 C 69 173.187, 68.325 174, 67.500 174 C 66.675 174, 65.999 173.438, 65.999 172.750 C 65.998 172.063, 64.933 170.262, 63.632 168.750 C 60.665 165.299, 55.113 164.854, 54.290 168 C 53.607 170.611, 50 170.681, 50 168.083 C 50 167.029, 50.563 165.938, 51.250 165.659 C 52.191 165.278, 52.129 164.890, 51 164.091 C 48.916 162.618, 48 162.743, 48 164.500 C 48 166.198, 46.434 166.511, 45.500 165 C 44.455 163.309, 43 163.891, 43 166 C 43 167.100, 43.502 168, 44.117 168 C 44.741 168, 45.003 168.882, 44.710 170 C 44.423 171.100, 44.565 172, 45.026 172 C 45.488 172, 46.151 172.900, 46.500 174 C 46.849 175.100, 47.810 176, 48.635 176 C 49.680 176, 49.942 176.607, 49.500 178 C 49.058 179.394, 49.320 180, 50.366 180 C 51.260 180, 51.995 178.888, 52.184 177.250 C 52.458 174.862, 52.994 174.459, 56.250 174.190 C 59.188 173.946, 60 173.459, 60 171.940 C 60 170.667, 60.687 170, 62 170 C 64.223 170, 64.692 171.511, 62.750 172.417 C 61.750 172.883, 61.750 173.117, 62.750 173.583 C 64.233 174.275, 64.443 178, 63 178 C 62.450 178, 62 178.675, 62 179.500 C 62 180.325, 61.550 181, 61 181 C 60.450 181, 60 180.373, 60 179.607 C 60 178.841, 59.288 177.941, 58.418 177.607 C 56.183 176.749, 56 176.817, 56 178.500 C 56 179.325, 56.450 180, 57 180 C 57.550 180, 58 181.125, 58 182.500 C 58 183.875, 58.450 185, 59 185 C 59.550 185, 59.970 186.912, 59.932 189.250 C 59.873 192.976, 59.734 193.230, 58.806 191.308 C 57.521 188.650, 54.932 187.492, 53.922 189.125 C 53.059 190.522, 53.817 193, 55.107 193 C 55.598 193, 56 194.800, 56 197 C 56 201.510, 54.306 202.476, 53.809 198.250 L 53.486 195.500 52.140 197.877 C 51.084 199.742, 51.059 200.418, 52.025 201.015 C 52.702 201.434, 52.917 202.325, 52.503 202.995 C 51.961 203.873, 52.345 204.025, 53.875 203.540 C 56.367 202.749, 56.639 204.225, 54.750 208.293 C 53.720 210.511, 52.841 210.986, 49.750 210.992 C 46.252 210.999, 46 211.201, 46 214 C 46 217.005, 43.850 218.184, 42.463 215.940 C 42.049 215.270, 41.303 215.546, 40.436 216.690 C 38.607 219.103, 38.658 220.655, 40.593 221.397 C 41.678 221.814, 42.366 221.317, 42.753 219.836 C 43.309 217.709, 43.366 217.721, 45.534 220.440 C 47.200 222.529, 48.272 223.048, 49.873 222.540 C 52.023 221.858, 52.930 218, 50.941 218 C 50.359 218, 50.106 217.637, 50.380 217.194 C 51.416 215.518, 57.584 217.136, 58.550 219.336 C 59.072 220.526, 60.513 221.644, 61.750 221.820 C 63.047 222.004, 64.013 222.851, 64.032 223.820 C 64.060 225.301, 64.233 225.276, 65.493 223.612 C 67.058 221.545, 65.950 218.028, 63.715 217.967 C 61.735 217.913, 58 214.316, 58 212.465 C 58 211.093, 58.600 210.870, 61 211.350 C 63.249 211.800, 64 211.581, 64 210.475 C 64 208.690, 65.174 208.574, 66.800 210.200 C 68.563 211.963, 68.267 213, 66 213 C 64.667 213, 64 213.667, 64 215 C 64 217.330, 65.264 217.592, 66.914 215.603 C 68.574 213.604, 71.997 214.787, 72.015 217.367 C 72.026 218.852, 72.278 219.110, 72.845 218.216 C 73.294 217.508, 74.409 217.220, 75.330 217.573 C 77.309 218.332, 77.431 219.169, 75.800 220.800 C 74.867 221.733, 74.978 222, 76.300 222 C 77.235 222, 78.049 222.338, 78.110 222.750 C 79.083 229.410, 78.861 230, 75.383 230 C 72.667 230, 72 230.394, 72 232 C 72 233.704, 72.667 234, 76.500 234 C 80.333 234, 81 233.704, 81 232 C 81 230.900, 81.450 230, 82 230 C 84.228 230, 82.288 222.781, 79.529 220.804 C 78.995 220.422, 78.864 219.802, 79.239 219.428 C 79.614 219.053, 81.505 220.378, 83.443 222.373 C 85.380 224.368, 87.423 226, 87.982 226 C 89.627 226, 89.154 227.448, 87.002 228.998 C 85.808 229.859, 85.221 231.121, 85.543 232.135 C 86.265 234.409, 84.376 235.413, 79.879 235.148 C 75.581 234.894, 74.056 236.485, 76.375 238.803 C 77.633 240.062, 78.250 240.150, 79.193 239.207 C 80.942 237.458, 85.675 237.710, 86.396 239.590 C 87.391 242.182, 85.968 243.256, 82.323 242.665 C 79.718 242.242, 77.842 242.749, 74.468 244.787 C 69.693 247.671, 68.539 249.354, 69.796 251.599 C 70.458 252.783, 70.963 252.684, 72.755 251.013 C 73.944 249.906, 75.385 249, 75.958 249 C 77.438 249, 77.255 252.746, 75.750 253.262 C 74.960 253.533, 75.696 254.815, 77.750 256.746 C 79.538 258.427, 81 260.522, 81 261.401 C 81 262.281, 81.498 263, 82.107 263 C 82.716 263, 82.982 263.605, 82.698 264.344 C 82.329 265.306, 82.866 265.557, 84.591 265.227 C 86.121 264.935, 87 264.079, 87 262.883 C 87 260.598, 87.656 260.513, 89.681 262.538 C 91.065 263.922, 91.007 264.259, 89.109 265.905 C 87.776 267.061, 86.977 268.980, 86.937 271.117 C 86.880 274.148, 86.779 274.266, 85.969 272.250 C 84.832 269.423, 81.583 269.112, 82.473 271.916 C 82.808 272.970, 82.613 274.121, 82.041 274.475 C 81.468 274.829, 81 275.954, 81 276.976 C 81 277.997, 80.470 279.010, 79.823 279.226 C 79.176 279.441, 78.977 280.154, 79.382 280.809 C 80.276 282.256, 84.641 282.390, 85.502 280.997 C 85.915 280.328, 86.748 280.330, 88.008 281.004 C 89.489 281.797, 90.390 281.521, 92.197 279.722 C 94.210 277.718, 94.323 277.222, 93.092 275.786 C 92.318 274.882, 91.558 272.953, 91.403 271.499 C 91.130 268.943, 91.274 268.866, 95.811 269.148 C 99.999 269.409, 100.534 269.203, 100.820 267.220 C 101.079 265.420, 100.653 265, 98.570 265 C 97.156 265, 96 264.550, 96 264 C 96 263.450, 95.325 263, 94.500 263 C 93.675 263, 93 262.550, 93 262 C 93 261.450, 94.520 261, 96.379 261 C 99.190 261, 99.966 261.504, 101 264 C 101.683 265.650, 102.863 267, 103.621 267 C 104.380 267, 105.016 267.563, 105.035 268.250 C 105.055 268.938, 105.617 268.519, 106.285 267.319 C 107.287 265.521, 107.842 265.330, 109.447 266.229 C 110.879 267.031, 111.496 267.013, 111.780 266.160 C 112.741 263.278, 114 265.457, 114 270 C 114 273.823, 113.640 275, 112.469 275 C 111.626 275, 110.678 275.675, 110.362 276.500 C 109.716 278.181, 105.455 278.545, 104.500 277 C 104.160 276.450, 102.784 276, 101.441 276 C 99.667 276, 99 276.546, 99 278 C 99 279.304, 98.333 280, 97.083 280 C 96.029 280, 95.017 280.346, 94.833 280.768 C 94.650 281.191, 93.202 282.541, 91.615 283.768 C 90.028 284.996, 89.241 286, 89.865 286 C 90.489 286, 91 286.654, 91 287.453 C 91 289.808, 93.236 294.023, 94.413 293.888 C 96.880 293.605, 97.794 294.103, 98.290 296 C 98.577 297.100, 99.466 298, 100.264 298 C 101.334 298, 101.696 299.224, 101.646 302.665 C 101.597 305.943, 102.061 307.636, 103.205 308.357 C 105.303 309.681, 107.995 307.593, 108.014 304.628 C 108.035 301.340, 109.131 298, 110.188 298 C 112.112 298, 114 300.937, 114 303.929 C 114 306.333, 114.434 307, 116 307 C 117.467 307, 118 306.333, 118 304.500 C 118 303.125, 117.550 302, 117 302 C 116.450 302, 116 301.100, 116 300 C 116 298.900, 116.338 298.004, 116.750 298.008 C 117.765 298.018, 120 302.965, 120 305.199 C 120 306.190, 120.450 307, 121 307 C 121.550 307, 122 307.900, 122 309 C 122 310.333, 121.333 311, 120 311 C 118.333 311, 118 311.667, 118 315 C 118 317.970, 118.405 319, 119.571 319 C 121.684 319, 124.321 316.317, 123.008 315.505 C 121.440 314.536, 121.822 311.282, 123.582 310.607 C 124.452 310.273, 126.491 310, 128.113 310 C 131.097 310, 131.353 309.688, 132.436 304.750 C 132.886 302.692, 132.656 302, 131.519 302 C 130.684 302, 130 301.550, 130 301 C 130 300.450, 131.275 300, 132.833 300 C 134.392 300, 135.936 299.731, 136.264 299.402 C 137.403 298.264, 135.777 296, 133.822 296 C 131.994 296, 129 293.871, 129 292.571 C 129 292.257, 129.675 292, 130.500 292 C 131.325 292, 132 292.477, 132 293.059 C 132 293.641, 132.387 293.879, 132.859 293.587 C 134.257 292.723, 131.703 286.156, 129.773 285.651 C 128.798 285.396, 128 284.527, 128 283.721 C 128 282.602, 129.129 282.313, 132.750 282.505 C 139.367 282.854, 139.664 282.926, 138.216 283.845 C 136.683 284.818, 137.667 288, 139.500 288 C 141.120 288, 142.483 291.339, 141.057 291.814 C 139.253 292.416, 139.867 293.801, 143.589 297.522 L 147.178 301.111 145.089 302.923 C 141.048 306.427, 142.874 307.775, 149.786 306.393 C 153.699 305.610, 154.759 302.407, 151.386 301.561 C 150.073 301.231, 149 300.333, 149 299.564 C 149 298.796, 148.438 297.904, 147.750 297.583 C 146.750 297.117, 146.750 296.883, 147.750 296.417 C 149.898 295.414, 149.128 294.281, 145.750 293.474 C 142.948 292.804, 142.810 292.640, 144.750 292.279 C 145.988 292.049, 147 291.157, 147 290.298 C 147 289.438, 145.988 287.824, 144.750 286.711 C 142.951 285.094, 142.867 284.820, 144.332 285.344 C 145.339 285.705, 147.702 286, 149.582 286 C 152.333 286, 153 286.390, 153 288 C 153 289.100, 152.550 290, 152 290 C 151.450 290, 151 290.450, 151 291 C 151 291.550, 151.900 292, 153 292 C 154.100 292, 155 292.450, 155 293 C 155 293.550, 155.675 294, 156.500 294 C 157.325 294, 158 294.450, 158 295 C 158 295.550, 159.800 296, 162 296 C 164.200 296, 166 295.550, 166 295 C 166 294.450, 166.863 294, 167.917 294 C 168.971 294, 170.096 293.437, 170.417 292.750 C 170.883 291.750, 171.117 291.750, 171.583 292.750 C 172.375 294.446, 176.810 294.333, 178.571 292.571 C 180.210 290.933, 180.485 288, 179 288 C 176.720 288, 178.226 285.117, 181.013 284.145 C 182.670 283.568, 184.294 282.399, 184.620 281.547 C 185.349 279.649, 191.164 279.465, 194.044 281.250 C 195.705 282.280, 196.225 282.237, 196.989 281.008 C 197.667 279.919, 198.215 279.815, 199.023 280.623 C 199.831 281.431, 199.707 282.150, 198.564 283.293 C 197.704 284.153, 197 285.564, 197 286.429 C 197 287.438, 196.106 288, 194.500 288 C 193.125 288, 192 287.550, 192 287 C 192 286.450, 191.100 286, 190 286 C 188.900 286, 188 286.450, 188 287 C 188 287.550, 187.277 288, 186.393 288 C 185.338 288, 184.995 288.544, 185.393 289.582 C 185.727 290.452, 186 291.352, 186 291.582 C 186 291.812, 186.900 292, 188 292 C 189.333 292, 190 292.667, 190 294 C 190 295.111, 190.667 296, 191.500 296 C 192.325 296, 193 295.550, 193 295 C 193 294.450, 193.900 294, 195 294 C 196.333 294, 197 293.333, 197 292 C 197 290.667, 197.667 290, 199 290 C 200.100 290, 201 290.450, 201 291 C 201 291.550, 200.495 292, 199.878 292 C 199.092 292, 199.121 292.441, 199.975 293.470 C 200.938 294.630, 200.912 295.577, 199.853 297.970 C 199.115 299.636, 198.172 301, 197.756 301 C 197.340 301, 197 301.675, 197 302.500 C 197 303.325, 197.638 304, 198.418 304 C 201.326 304, 203 302.718, 203 300.491 C 203 298.840, 203.842 297.902, 206 297.150 C 207.650 296.575, 209 295.613, 209 295.013 C 209 294.287, 209.437 294.329, 210.301 295.136 C 211.017 295.805, 211.415 297.623, 211.187 299.176 C 210.944 300.832, 211.234 302, 211.887 302 C 212.499 302, 213 301.550, 213 301 C 213 300.450, 214.098 300, 215.441 300 C 216.784 300, 218.154 299.559, 218.487 299.020 C 218.869 298.403, 219.809 298.488, 221.030 299.251 C 222.624 300.246, 223.281 300.147, 224.734 298.694 C 225.905 297.523, 226.138 296.687, 225.427 296.214 C 223.548 294.964, 222.918 292, 224.531 292 C 225.339 292, 226 292.450, 226 293 C 226 293.550, 226.862 294, 227.917 294 C 228.971 294, 230.019 294.558, 230.247 295.241 C 230.548 296.144, 231.116 296.027, 232.330 294.813 C 234.217 292.926, 234.710 284, 232.929 284 C 232.339 284, 232.532 283.325, 233.357 282.500 C 235.379 280.478, 236 280.611, 236 283.066 C 236 284.202, 236.496 286.059, 237.103 287.193 C 237.891 288.664, 237.897 289.445, 237.127 289.921 C 235.238 291.089, 237.736 298, 240.047 298 C 241.253 298, 242 297.319, 242 296.221 C 242 295.242, 242.900 293.793, 244 293 C 246.232 291.391, 246.666 288.389, 244.759 287.753 C 243.862 287.454, 243.992 286.866, 245.226 285.631 C 246.837 284.020, 247.007 284.038, 248.208 285.961 C 248.908 287.083, 249.855 288, 250.312 288 C 251.459 288, 254 290.642, 254 291.835 C 254 292.373, 254.912 292.574, 256.026 292.283 C 257.329 291.942, 258.708 292.510, 259.893 293.877 C 261.804 296.081, 264 296.705, 264 295.045 C 264 294.520, 262.875 292.966, 261.500 291.591 C 260.125 290.216, 259 288.140, 259 286.978 C 259 285.246, 259.406 284.991, 261.250 285.565 C 262.488 285.950, 263.636 286.613, 263.803 287.040 C 263.969 287.466, 264.943 288.781, 265.968 289.963 L 267.830 292.110 268.483 290.055 C 269.318 287.424, 271 287.387, 271 290 C 271 291.100, 271.627 292, 272.393 292 C 274.089 292, 275.538 288.679, 274.057 288.186 C 272.445 287.648, 272.798 286, 274.525 286 C 275.363 286, 276.477 284.875, 277 283.500 C 278.149 280.477, 278.994 280.393, 282 283 C 283.268 284.100, 284.667 285, 285.108 285 C 285.548 285, 287.034 286.125, 288.409 287.500 C 292.021 291.112, 295.457 290.811, 296.961 286.750 C 298.942 281.404, 299.603 280.515, 301.852 280.180 C 303.142 279.988, 304 279.137, 304 278.047 C 304 277.049, 304.903 275.997, 306.007 275.709 C 307.262 275.380, 308.245 274.026, 308.632 272.092 C 309.059 269.955, 309.829 269, 311.125 269 C 312.156 269, 313 269.450, 313 270 C 313 271.104, 316.938 271.345, 319.418 270.393 C 320.616 269.933, 321 268.338, 321 263.822 C 321 257.687, 319.651 255, 316.571 255 C 315.707 255, 315 254.325, 315 253.500 C 315 252.675, 315.450 252, 316 252 C 316.550 252, 317 251.363, 317 250.583 C 317 249.804, 317.563 248.940, 318.250 248.662 C 319.250 248.259, 319.250 248.142, 318.250 248.079 C 317.563 248.036, 317 247.273, 317 246.383 C 317 245.230, 316.333 244.894, 314.670 245.212 C 312.920 245.547, 311.947 244.972, 310.758 242.902 C 309.420 240.570, 309.394 240.063, 310.588 239.604 C 312.387 238.914, 312.344 235.226, 310.500 232 C 308.811 229.045, 308.606 227, 310 227 C 310.550 227, 311 227.510, 311 228.133 C 311 228.756, 311.828 229.993, 312.840 230.883 C 313.852 231.772, 314.986 233.738, 315.359 235.250 C 315.915 237.501, 316.592 238, 319.090 238 C 322.661 238, 325 236.021, 325 233 C 325 229.899, 327.365 228, 331.229 228 C 333.083 228, 335.168 227.438, 335.862 226.750 C 336.873 225.749, 337.321 225.848, 338.112 227.250 C 339.608 229.902, 341.765 229.347, 342.472 226.128 C 343.460 221.631, 342.218 218.521, 338.941 217.284 C 336.198 216.248, 334.745 213, 337.025 213 C 338.543 213, 340.197 207.922, 339.536 205.289 C 339.220 204.030, 338.295 203, 337.481 203 C 336.666 203, 336 202.523, 336 201.941 C 336 201.359, 335.550 201.160, 335 201.500 C 334.450 201.840, 334 203.891, 334 206.059 C 334 208.227, 333.550 210, 333 210 C 332.450 210, 332 209.325, 332 208.500 C 332 207.675, 331.559 207, 331.019 207 C 329.444 207, 328.729 202.376, 329.950 200.093 C 330.566 198.942, 331.707 198, 332.485 198 C 333.264 198, 334.316 197.258, 334.824 196.350 C 335.391 195.337, 336.510 194.900, 337.725 195.218 C 338.992 195.549, 340.849 194.734, 342.894 192.948 C 346.059 190.185, 346.067 190.157, 343.793 189.513 C 342.532 189.156, 339.363 187.888, 336.750 186.696 C 333.120 185.039, 332 183.994, 332 182.264 C 332 181.019, 331.494 180, 330.875 180 C 330.158 180, 329.968 181.089, 330.350 183 C 330.850 185.498, 330.630 186, 329.034 186 C 327.980 186, 326.860 185.583, 326.546 185.074 C 325.807 183.879, 319.926 185.523, 318.820 187.232 C 318.161 188.251, 317.834 188.243, 317.155 187.192 C 315.798 185.091, 310.710 186.781, 311.324 189.129 C 311.899 191.328, 310.730 191.584, 309.097 189.617 C 308.212 188.550, 308.298 188.100, 309.474 187.648 C 310.314 187.326, 311 186.374, 311 185.531 C 311 184.689, 311.398 184, 311.883 184 C 312.369 184, 313.044 182.988, 313.383 181.750 C 313.865 179.994, 314.196 179.804, 314.893 180.885 C 316.013 182.624, 321 181.565, 321 179.588 C 321 177.837, 323.208 176.980, 325.904 177.685 C 327.108 178, 328 177.758, 328 177.117 C 328 176.502, 327.598 176, 327.107 176 C 325.393 176, 325.098 173.040, 326.537 170.281 C 327.335 168.751, 327.990 168.063, 327.994 168.750 C 327.997 169.471, 329.270 170, 331 170 C 332.650 170, 334 169.550, 334 169 C 334 168.450, 333.518 168, 332.929 168 C 332.339 168, 331.246 167.388, 330.498 166.641 C 329.352 165.495, 329.359 164.670, 330.538 161.391 C 331.770 157.966, 332.013 157.761, 332.568 159.681 C 333.552 163.090, 336.003 163.476, 335.985 160.219 C 335.962 156.192, 334.610 154.650, 331.606 155.224 C 329.393 155.648, 329 155.367, 329 153.361 C 329 150.934, 330.388 150.201, 331.519 152.031 C 331.896 152.641, 333.653 152.791, 335.828 152.398 C 340.167 151.614, 339.597 152.003, 340.443 149.250 C 340.957 147.580, 340.731 147, 339.567 147 C 338.705 147, 338 146.550, 338 146 C 338 144.079, 335.129 145.019, 334.448 147.163 C 333.786 149.249, 333.724 149.258, 332.696 147.413 C 330.455 143.393, 329.065 142.627, 326.500 144 C 324.511 145.064, 323.874 145.017, 322.564 143.706 C 320.184 141.326, 320.589 141, 325.928 141 L 330.856 141 331.552 135.431 C 332.031 131.595, 332.831 129.498, 334.124 128.691 C 336.655 127.110, 336.484 125.394, 333.500 122.409 C 332.125 121.034, 331 120.283, 331 120.739 C 331 121.195, 329.650 122.366, 328 123.341 C 325.377 124.890, 325 124.917, 325 123.557 C 325 121.576, 322.314 121.543, 320.357 123.500 C 319.532 124.325, 319.339 125, 319.929 125 C 320.518 125, 321 126.125, 321 127.500 C 321 128.875, 320.550 130, 320 130 C 319.450 130, 319 130.675, 319 131.500 C 319 133.428, 317.544 133.402, 314.523 131.423 C 313.199 130.555, 311.134 129.993, 309.934 130.173 C 307.874 130.482, 307.954 130.719, 311.374 134.443 C 314.009 137.312, 314.655 138.605, 313.747 139.193 C 312.884 139.752, 312.830 140.231, 313.573 140.750 C 314.163 141.162, 314.947 142.316, 315.316 143.313 C 315.684 144.311, 316.398 144.872, 316.903 144.560 C 318.493 143.577, 321 145.136, 321 147.107 C 321 148.604, 320.267 149, 317.500 149 C 315.575 149, 314 148.550, 314 148 C 314 147.450, 313.325 147, 312.500 147 C 311.491 147, 310.974 145.937, 310.921 143.750 C 310.878 141.963, 310.615 141.063, 310.338 141.750 C 309.739 143.234, 307 143.439, 307 142 C 307 141.450, 306.040 141, 304.867 141 C 303.694 141, 301.868 140.001, 300.809 138.779 C 298.984 136.676, 298.975 136.491, 300.633 135.279 C 301.595 134.576, 302.746 134, 303.191 134 C 304.751 134, 303.980 130.355, 301.961 128.189 C 300.607 126.735, 298.736 126, 296.390 126 C 292.972 126, 290 124.204, 290 122.139 C 290 121.587, 289.100 120.849, 288 120.500 C 284.984 119.543, 285.177 113.449, 288.250 112.642 C 289.488 112.317, 290.650 112.490, 290.833 113.026 C 291.017 113.561, 292.029 114, 293.083 114 C 294.137 114, 295 114.450, 295 115 C 295 115.550, 295.675 116, 296.500 116 C 297.325 116, 298 116.450, 298 117 C 298 117.550, 298.731 118, 299.625 118 C 300.912 118, 301.120 117.349, 300.625 114.875 C 300.281 113.156, 300 111.356, 300 110.875 C 300 110.394, 299.063 110, 297.917 110 C 294.937 110, 296.095 107.567, 299.254 107.191 C 302.902 106.757, 303.842 105.222, 304.617 98.434 C 305.286 92.579, 305.269 92.523, 303.319 94.250 C 300.658 96.606, 300 96.457, 300 93.500 C 300 91.195, 300.360 91, 304.607 91 C 308.386 91, 309.105 90.717, 308.611 89.428 C 308.279 88.563, 308.493 86.947, 309.087 85.837 C 309.877 84.362, 309.838 83.023, 308.943 80.862 C 307.542 77.480, 302.433 74.221, 301.735 76.265 C 301.400 77.245, 300.619 77.244, 297.958 76.262 C 296.113 75.581, 294.355 75.389, 294.052 75.835 C 293.748 76.281, 292.658 76.957, 291.629 77.338 C 290.165 77.880, 289.861 77.640, 290.229 76.233 C 290.625 74.718, 290.175 74.498, 287.349 74.828 C 284.741 75.132, 283.986 75.693, 283.937 77.359 C 283.877 79.365, 283.812 79.346, 282.901 77.065 C 282.366 75.726, 282.169 74.003, 282.463 73.236 C 282.883 72.142, 282.298 71.987, 279.749 72.518 C 275.158 73.475, 272.845 76.091, 272.580 80.625 C 272.274 85.884, 272.804 87, 275.607 87 C 276.923 87, 278 87.450, 278 88 C 278 88.550, 278.900 89, 280 89 C 281.333 89, 282 89.667, 282 91 C 282 92.100, 282.450 93, 283 93 C 283.550 93, 284 93.900, 284 95 C 284 97.106, 281.194 97.771, 279.450 96.078 C 278.928 95.571, 276.813 94.846, 274.750 94.467 C 271.683 93.903, 271 94.071, 271 95.389 C 271 96.275, 271.563 97.007, 272.250 97.015 C 273.520 97.031, 271.185 98.953, 269.858 98.985 C 268.597 99.015, 268.061 94.273, 268.969 91.108 C 269.477 89.336, 269.644 87.236, 269.340 86.443 C 268.661 84.674, 263.364 84.521, 262.651 86.250 C 262.338 87.007, 261.865 86.613, 261.451 85.250 C 260.602 82.458, 260.636 82.455, 257.545 85.545 C 255.052 88.039, 254.024 93, 256 93 C 256.550 93, 257 94.125, 257 95.500 C 257 96.875, 256.658 98, 256.241 98 C 254.910 98, 252.581 93.571, 252.882 91.612 C 253.042 90.574, 252.595 89.368, 251.890 88.932 C 250.927 88.337, 251.218 87.606, 253.053 86.005 C 254.721 84.551, 255.102 83.706, 254.250 83.352 C 253.563 83.067, 253 81.971, 253 80.917 C 253 79.862, 252.550 79, 252 79 C 251.450 79, 251 78.325, 251 77.500 C 251 76.675, 251.418 76, 251.929 76 C 252.439 76, 253.532 76.675, 254.357 77.500 C 256.384 79.527, 256.571 79.450, 258 76 C 258.683 74.350, 259.638 73, 260.121 73 C 260.605 73, 261 72.277, 261 71.393 C 261 70.361, 260.463 70.003, 259.500 70.393 C 258.675 70.727, 257.325 71.273, 256.500 71.607 C 255.358 72.069, 255 71.472, 255 69.107 C 255 66.667, 255.429 66, 257 66 C 258.556 66, 259 65.333, 259 63 C 259 60.667, 258.556 60, 257 60 C 255.900 60, 255 60.450, 255 61 C 255 61.550, 253.375 62, 251.389 62 C 247.856 62, 247.791 61.929, 248.387 58.749 C 248.924 55.886, 248.571 55.158, 245.429 52.651 C 243.289 50.943, 241.110 50, 239.986 50.294 C 238.740 50.619, 237.273 49.773, 235.613 47.769 C 233.611 45.352, 232.608 44.881, 230.558 45.396 C 229.151 45.749, 228 46.705, 228 47.519 C 228 50.152, 225.192 49.090, 223.573 45.846 C 221.827 42.345, 221.438 35, 223 35 C 223.550 35, 224 34.550, 224 34 C 224 33.450, 223.325 33, 222.500 33 C 221.675 33, 221 33.450, 221 34 M 191.649 36.471 C 191.035 38.072, 193.672 41.321, 194.947 40.533 C 195.378 40.266, 195.515 38.912, 195.249 37.524 C 194.722 34.765, 192.548 34.129, 191.649 36.471 M 228 36 C 228 36.550, 228.450 37, 229 37 C 229.550 37, 230 36.550, 230 36 C 230 35.450, 229.550 35, 229 35 C 228.450 35, 228 35.450, 228 36 M 166.583 37.866 C 166.152 38.563, 166.070 39.403, 166.400 39.733 C 167.295 40.628, 168.271 39.312, 167.787 37.862 C 167.449 36.846, 167.213 36.846, 166.583 37.866 M 188 38.559 C 188 39.416, 188.450 39.840, 189 39.500 C 189.550 39.160, 190 38.459, 190 37.941 C 190 37.423, 189.550 37, 189 37 C 188.450 37, 188 37.702, 188 38.559 M 205 46.393 C 205 47.863, 207.419 49.247, 208.355 48.312 C 208.917 47.750, 206.606 45, 205.571 45 C 205.257 45, 205 45.627, 205 46.393 M 153 47.417 C 153 48.196, 152.460 49.013, 151.801 49.233 C 151.050 49.483, 151.238 49.877, 152.301 50.285 C 153.617 50.790, 154 50.381, 154 48.469 C 154 47.111, 153.775 46, 153.500 46 C 153.225 46, 153 46.638, 153 47.417 M 208.710 52 C 208.295 53.589, 208.680 54, 210.584 54 C 212.885 54, 212.912 53.920, 211.268 52 C 210.326 50.900, 209.483 50, 209.394 50 C 209.306 50, 208.998 50.900, 208.710 52 M 151 53 C 151 53.550, 151.675 54, 152.500 54 C 153.325 54, 154 53.550, 154 53 C 154 52.450, 153.325 52, 152.500 52 C 151.675 52, 151 52.450, 151 53 M 163.079 56.583 C 163.127 57.748, 163.364 57.985, 163.683 57.188 C 163.972 56.466, 163.936 55.603, 163.604 55.271 C 163.272 54.939, 163.036 55.529, 163.079 56.583 M 178 56.545 C 178 56.845, 179.168 58.259, 180.597 59.688 C 182.605 61.696, 183.064 62.932, 182.622 65.142 C 181.987 68.316, 183.844 69.098, 185.960 66.548 C 187.491 64.704, 186.462 61.371, 183.426 58.335 C 181.331 56.240, 178 55.142, 178 56.545 M 199.015 56.750 C 199.024 57.163, 199.467 58.175, 200 59 C 200.784 60.213, 200.972 60.069, 200.985 58.250 C 200.993 57.013, 200.550 56, 200 56 C 199.450 56, 199.007 56.337, 199.015 56.750 M 265 59 C 265 59.550, 265.450 60, 266 60 C 266.550 60, 267 59.550, 267 59 C 267 58.450, 266.550 58, 266 58 C 265.450 58, 265 58.450, 265 59 M 109 62.071 C 109 63.913, 109.167 63.976, 110.500 62.643 C 111.325 61.818, 112 60.886, 112 60.571 C 112 60.257, 111.325 60, 110.500 60 C 109.649 60, 109 60.897, 109 62.071 M 298 61 C 298 61.550, 298.450 62, 299 62 C 299.550 62, 300 61.550, 300 61 C 300 60.450, 299.550 60, 299 60 C 298.450 60, 298 60.450, 298 61 M 193.714 64.398 C 191.995 65.877, 190.171 66.596, 188.949 66.277 C 187.452 65.885, 187.118 66.144, 187.577 67.341 C 187.911 68.212, 187.461 70.374, 186.577 72.146 C 185.690 73.923, 185.352 75.752, 185.822 76.222 C 187.145 77.545, 191.991 75.263, 192.079 73.275 C 192.130 72.126, 192.512 72.471, 193.162 74.250 C 193.880 76.214, 194.857 77, 196.583 77 C 199.136 77, 199.863 75.529, 197.750 74.641 C 196.855 74.265, 196.997 73.802, 198.250 73.008 C 200.452 71.614, 200.454 70.597, 198.259 68.402 C 197.007 67.150, 196.867 66.544, 197.759 66.247 C 199.381 65.706, 199.373 62, 197.750 62.001 C 197.063 62.002, 195.246 63.081, 193.714 64.398 M 114 65 C 114 65.550, 114.450 66, 115 66 C 115.550 66, 116 65.550, 116 65 C 116 64.450, 115.550 64, 115 64 C 114.450 64, 114 64.450, 114 65 M 118 65 C 118 65.550, 118.450 66, 119 66 C 119.550 66, 120 65.550, 120 65 C 120 64.450, 119.550 64, 119 64 C 118.450 64, 118 64.450, 118 65 M 139 65 C 139 65.550, 139.863 66, 140.917 66 C 141.971 66, 143.007 66.522, 143.220 67.160 C 143.509 68.028, 144.096 68.036, 145.553 67.190 C 147.419 66.108, 147.406 66.060, 145.250 66.030 C 144.012 66.014, 143 65.550, 143 65 C 143 64.450, 142.100 64, 141 64 C 139.900 64, 139 64.450, 139 65 M 180 65 C 180 65.550, 180.450 66, 181 66 C 181.550 66, 182 65.550, 182 65 C 182 64.450, 181.550 64, 181 64 C 180.450 64, 180 64.450, 180 65 M 215 67 C 215 67.550, 215.450 68, 216 68 C 216.550 68, 217 67.550, 217 67 C 217 66.450, 216.550 66, 216 66 C 215.450 66, 215 66.450, 215 67 M 122 68.639 C 122 69.387, 122.873 70, 123.941 70 C 126.895 70, 127.311 68.293, 124.488 67.753 C 122.823 67.435, 122 67.728, 122 68.639 M 244 69.059 C 244 69.641, 244.450 69.840, 245 69.500 C 245.550 69.160, 246 68.684, 246 68.441 C 246 68.198, 245.550 68, 245 68 C 244.450 68, 244 68.477, 244 69.059 M 261.500 69 C 261.840 69.550, 262.316 70, 262.559 70 C 262.802 70, 263 69.550, 263 69 C 263 68.450, 262.523 68, 261.941 68 C 261.359 68, 261.160 68.450, 261.500 69 M 139.570 69.887 C 138.917 70.944, 141.783 73.550, 142.648 72.686 C 143.481 71.852, 142.276 69, 141.090 69 C 140.556 69, 139.871 69.399, 139.570 69.887 M 115.250 70.662 C 113.276 71.459, 113.794 74.800, 116 75.500 C 117.100 75.849, 118 76.644, 118 77.267 C 118 78.103, 118.294 78.106, 119.119 77.281 C 119.945 76.455, 119.881 75.353, 118.875 73.081 C 117.467 69.899, 117.344 69.817, 115.250 70.662 M 168.250 72.250 C 168.880 74.142, 172 74.411, 172 72.573 C 172 71.646, 171.145 71, 169.917 71 C 168.695 71, 168.005 71.517, 168.250 72.250 M 201 74 C 201 75.333, 201.667 76, 203 76 C 204.333 76, 205 75.333, 205 74 C 205 72.667, 204.333 72, 203 72 C 201.667 72, 201 72.667, 201 74 M 271 73.500 C 271 74.325, 271.177 75, 271.393 75 C 271.609 75, 272.045 74.325, 272.362 73.500 C 272.678 72.675, 272.501 72, 271.969 72 C 271.436 72, 271 72.675, 271 73.500 M 284.500 73 C 284.840 73.550, 285.316 74, 285.559 74 C 285.802 74, 286 73.550, 286 73 C 286 72.450, 285.523 72, 284.941 72 C 284.359 72, 284.160 72.450, 284.500 73 M 106 75.800 C 106 76.240, 106.540 77.140, 107.200 77.800 C 108.963 79.563, 110 79.267, 110 77 C 110 75.667, 109.333 75, 108 75 C 106.900 75, 106 75.360, 106 75.800 M 231.607 76.582 C 230.287 80.023, 230.845 81.151, 233.250 79.900 C 236.413 78.254, 236.408 78.265, 234.690 76.548 C 232.752 74.609, 232.362 74.614, 231.607 76.582 M 133.269 76.693 C 134.242 76.947, 135.592 76.930, 136.269 76.656 C 136.946 76.382, 136.150 76.175, 134.500 76.195 C 132.850 76.215, 132.296 76.439, 133.269 76.693 M 304.157 79.667 C 304.071 81.408, 303.438 83.042, 302.750 83.297 C 301.832 83.637, 301.958 84.240, 303.226 85.571 C 305.467 87.921, 305.645 87.494, 304.920 81.500 C 304.500 78.035, 304.266 77.472, 304.157 79.667 M 259 80 C 259 80.550, 259.900 81, 261 81 C 262.100 81, 263 80.550, 263 80 C 263 79.450, 262.100 79, 261 79 C 259.900 79, 259 79.450, 259 80 M 104.413 82.141 C 104.121 82.613, 104.553 83, 105.374 83 C 106.194 83, 107.151 83.900, 107.500 85 C 107.849 86.100, 108.554 87, 109.067 87 C 109.580 87, 110 87.900, 110 89 C 110 90.333, 110.667 91, 112 91 C 114.223 91, 114.535 89.269, 112.943 85.774 C 111.846 83.367, 105.362 80.605, 104.413 82.141 M 282.697 84.393 C 282.288 85.434, 282.189 86.522, 282.476 86.810 C 283.389 87.722, 284.191 86.227, 283.809 84.328 C 283.459 82.588, 283.405 82.591, 282.697 84.393 M 143 89 C 143 90.100, 143.450 91, 144 91 C 144.550 91, 145 90.100, 145 89 C 145 87.900, 144.550 87, 144 87 C 143.450 87, 143 87.900, 143 89 M 151 88 C 151 88.550, 151.450 89, 152 89 C 152.550 89, 153 88.550, 153 88 C 153 87.450, 152.550 87, 152 87 C 151.450 87, 151 87.450, 151 88 M 327 88 C 327 88.550, 327.900 89, 329 89 C 330.100 89, 331 88.550, 331 88 C 331 87.450, 330.100 87, 329 87 C 327.900 87, 327 87.450, 327 88 M 213.079 89.750 C 213.036 90.438, 212.342 91, 211.539 91 C 210.191 91, 209.468 92.872, 207.581 101.250 C 206.914 104.212, 206.894 104.203, 214.866 104.454 C 219.119 104.588, 220.149 102.349, 217.007 99.804 C 215.241 98.375, 214.960 97.640, 215.840 96.760 C 217.482 95.118, 217.298 91, 215.583 91 C 214.804 91, 213.940 90.438, 213.662 89.750 C 213.259 88.750, 213.142 88.750, 213.079 89.750 M 116 93 C 116 94.100, 115.550 95, 115 95 C 114.450 95, 114 95.862, 114 96.917 C 114 97.971, 113.610 98.983, 113.134 99.167 C 112.658 99.350, 112.571 100.343, 112.940 101.373 C 113.540 103.045, 113.774 103.083, 115.127 101.730 C 115.960 100.897, 117.510 99.994, 118.571 99.724 C 120.245 99.297, 120.203 99.217, 118.250 99.116 C 116.252 99.013, 114.820 96.024, 116.750 95.985 C 117.162 95.976, 118.135 95.567, 118.912 95.075 C 120.112 94.316, 120.085 93.942, 118.734 92.591 C 116.633 90.490, 116 90.584, 116 93 M 225.030 91.750 C 225.013 92.455, 223.739 93, 222.107 93 C 218.814 93, 217.255 95.483, 219.691 96.847 C 220.708 97.416, 221.098 98.516, 220.753 99.837 C 219.893 103.126, 222.451 104.590, 225.531 102.571 C 227.753 101.116, 227.989 100.440, 227.408 97.203 C 226.701 93.264, 225.084 89.555, 225.030 91.750 M 242.250 92.496 C 240.258 94.758, 240.760 95.918, 244.500 97.701 C 247.946 99.345, 249.117 101, 246.833 101 C 246.192 101, 245.933 101.266, 246.258 101.591 C 246.583 101.917, 247.783 101.886, 248.925 101.524 C 251.761 100.624, 251.538 97.398, 248.500 95.408 C 247.125 94.507, 246 93.147, 246 92.385 C 246 90.603, 243.861 90.666, 242.250 92.496 M 313 92 C 313 92.550, 313.900 93, 315 93 C 316.100 93, 317 92.550, 317 92 C 317 91.450, 316.100 91, 315 91 C 313.900 91, 313 91.450, 313 92 M 107 94 C 107 94.550, 107 95.225, 107 95.500 C 107 96.742, 108.399 95.891, 108.599 94.527 C 108.722 93.687, 108.413 93, 107.912 93 C 107.410 93, 107 93.450, 107 94 M 130 94 C 130 94.550, 130.423 95, 130.941 95 C 131.459 95, 132.160 94.550, 132.500 94 C 132.840 93.450, 132.416 93, 131.559 93 C 130.702 93, 130 93.450, 130 94 M 294 94 C 294 94.550, 292.100 95, 289.777 95 C 285.586 95, 285.572 95.012, 287.887 96.633 C 289.830 97.994, 290.124 98.869, 289.653 101.883 C 289.227 104.606, 289.336 105.067, 290.093 103.750 C 290.647 102.787, 291.701 102, 292.436 102 C 293.171 102, 293.985 100.763, 294.245 99.250 C 294.505 97.737, 295.054 95.713, 295.466 94.750 C 295.920 93.687, 295.780 93, 295.107 93 C 294.498 93, 294 93.450, 294 94 M 345.885 94.250 C 345.822 94.938, 345.850 96.287, 345.948 97.250 C 346.076 98.508, 345.405 99, 343.563 99 C 340.435 99, 340.198 101.165, 342.944 104.656 C 344.013 106.015, 344.640 107.774, 344.337 108.564 C 343.999 109.445, 344.407 110, 345.393 110 C 346.277 110, 347 110.450, 347 111 C 347 112.536, 350.957 112.186, 352.643 110.500 C 353.468 109.675, 353.681 109, 353.117 109 C 350.978 109, 347.162 104.096, 347.700 102.038 C 347.993 100.917, 348.687 100, 349.242 100 C 349.824 100, 350.002 98.760, 349.663 97.066 C 349.214 94.822, 349.479 94.026, 350.788 93.682 C 351.730 93.434, 351.038 93.180, 349.250 93.116 C 347.308 93.047, 345.954 93.503, 345.885 94.250 M 145 97 C 145 98.100, 145.450 99, 146 99 C 146.550 99, 147 98.100, 147 97 C 147 95.900, 146.550 95, 146 95 C 145.450 95, 145 95.900, 145 97 M 309.651 96.468 C 309.341 97.275, 309.518 98.202, 310.044 98.527 C 310.570 98.852, 311 98.191, 311 97.059 C 311 94.644, 310.444 94.401, 309.651 96.468 M 167.158 98 C 167.158 99.375, 167.385 99.938, 167.662 99.250 C 167.940 98.563, 167.940 97.438, 167.662 96.750 C 167.385 96.063, 167.158 96.625, 167.158 98 M 102.805 99.274 C 102.510 100.799, 102.688 102.307, 103.201 102.624 C 104.705 103.554, 104.988 102.598, 104.138 99.450 L 103.342 96.500 102.805 99.274 M 136 98.559 C 136 99.416, 136.450 99.840, 137 99.500 C 137.550 99.160, 138 98.459, 138 97.941 C 138 97.423, 137.550 97, 137 97 C 136.450 97, 136 97.702, 136 98.559 M 231.680 100.883 C 231.997 102.096, 231.351 103.341, 229.864 104.383 C 227.700 105.898, 227.681 106, 229.557 106 C 230.658 106, 232.207 106.900, 233 108 C 233.793 109.100, 235.242 110, 236.221 110 C 237.199 110, 238 110.450, 238 111 C 238 111.550, 239.762 112, 241.917 112 C 244.114 112, 246.055 112.549, 246.338 113.250 C 246.615 113.938, 246.878 113.128, 246.921 111.451 C 246.996 108.543, 246.837 108.421, 243.500 108.810 C 240.062 109.212, 239.252 108.261, 239.927 104.613 C 240.235 102.949, 235.657 99, 233.419 99 C 231.726 99, 231.306 99.454, 231.680 100.883 M 141.543 100.931 C 141.226 101.443, 141.425 102.144, 141.984 102.490 C 142.543 102.835, 143 102.416, 143 101.559 C 143 99.802, 142.400 99.544, 141.543 100.931 M 164.028 101.467 C 162.827 102.913, 162.832 103.280, 164.064 104.050 C 165.052 104.667, 165.602 104.482, 165.827 103.455 C 166.420 100.746, 165.484 99.711, 164.028 101.467 M 122.079 104.583 C 122.127 105.748, 122.364 105.985, 122.683 105.188 C 122.972 104.466, 122.936 103.603, 122.604 103.271 C 122.272 102.939, 122.036 103.529, 122.079 104.583 M 95 105 C 95 105.550, 95.477 106, 96.059 106 C 96.641 106, 96.840 105.550, 96.500 105 C 96.160 104.450, 95.684 104, 95.441 104 C 95.198 104, 95 104.450, 95 105 M 103 104.866 C 103 105.525, 101.987 106.471, 100.750 106.969 C 99.513 107.466, 99.063 107.902, 99.750 107.937 C 100.458 107.973, 101 109.300, 101 111 C 101 112.898, 101.512 114, 102.393 114 C 104.242 114, 104.869 112.128, 104.392 108.033 C 104.011 104.759, 103 102.459, 103 104.866 M 288.500 107 C 288.160 107.550, 288.359 108, 288.941 108 C 289.523 108, 290 107.550, 290 107 C 290 106.450, 289.802 106, 289.559 106 C 289.316 106, 288.840 106.450, 288.500 107 M 317 109 C 317 109.550, 317.450 110, 318 110 C 318.550 110, 319 109.550, 319 109 C 319 108.450, 318.550 108, 318 108 C 317.450 108, 317 108.450, 317 109 M 97.102 113.750 C 97.046 116.088, 96.550 118, 96 118 C 95.450 118, 95 118.900, 95 120 C 95 122.288, 95.376 122.404, 98.082 120.956 C 99.696 120.092, 100.191 120.307, 100.953 122.206 C 101.459 123.468, 101.902 123.938, 101.937 123.250 C 101.971 122.563, 102.685 122, 103.523 122 C 104.873 122, 104.867 122.273, 103.473 124.402 C 101.957 126.714, 102.012 126.859, 104.949 128.325 C 107.739 129.717, 108.010 129.704, 108.118 128.173 C 108.316 125.383, 107.866 123.518, 106.910 123.167 C 106.411 122.984, 106.276 121.747, 106.610 120.417 C 107.132 118.339, 106.863 118, 104.692 118 C 103.303 118, 101.940 118.563, 101.662 119.250 C 101.385 119.938, 101.122 119.487, 101.079 118.250 C 101.036 117.013, 100.615 116, 100.145 116 C 99.674 116, 98.820 114.537, 98.247 112.750 L 97.204 109.500 97.102 113.750 M 106.015 110.750 C 106.044 112.145, 107.968 114.588, 107.985 113.250 C 107.993 112.563, 108.450 112, 109 112 C 109.550 112, 110 113.800, 110 116 C 110 119.333, 110.333 120, 112 120 C 113.333 120, 114 119.333, 114 118 C 114 116.900, 113.502 116, 112.893 116 C 112.238 116, 112.073 115.286, 112.489 114.250 C 112.876 113.287, 113.422 111.938, 113.703 111.250 C 114.063 110.370, 112.998 110, 110.107 110 C 107.848 110, 106.007 110.338, 106.015 110.750 M 157 111 C 157 111.550, 157.450 112, 158 112 C 158.550 112, 159 112.450, 159 113 C 159 113.550, 158.325 114, 157.500 114 C 156.675 114, 156 114.450, 156 115 C 156 115.550, 156.675 116, 157.500 116 C 158.325 116, 159 115.550, 159 115 C 159 114.450, 159.450 114, 160 114 C 160.550 114, 161 114.735, 161 115.633 C 161 116.531, 161.972 118.109, 163.160 119.139 C 165.547 121.209, 165.451 121.646, 162.500 122.155 C 161.055 122.404, 160.411 121.876, 160.180 120.250 C 159.870 118.066, 158 116.993, 158 118.999 C 158 119.548, 156.146 118.198, 153.879 115.999 C 151.613 113.800, 149.331 112, 148.808 112 C 147.317 112, 145 114.694, 145 116.429 C 145 117.293, 144.334 118, 143.519 118 C 141.690 118, 140.174 123.225, 141.842 123.781 C 143.384 124.295, 143.335 128, 141.786 128 C 141.003 128, 141.151 128.580, 142.201 129.630 C 144.405 131.834, 149 130.720, 149 127.981 C 149 126.891, 149.450 126, 150 126 C 151.776 126, 151.061 131.557, 149 133.770 C 147.900 134.950, 147 136.835, 147 137.958 C 147 140.640, 145.932 140.534, 142.406 137.501 C 140.807 136.127, 139.228 135.002, 138.896 135.001 C 138.564 135.001, 137.030 133.831, 135.488 132.402 C 132.729 129.844, 132.712 129.758, 134.399 126.902 C 135.896 124.368, 135.918 124, 134.576 124 C 133.705 124, 132.787 125.194, 132.459 126.750 C 132.140 128.262, 131.498 130.215, 131.032 131.089 C 130.408 132.259, 130.884 133.092, 132.842 134.252 C 138.260 137.462, 140.981 140.415, 139.979 142 C 139.457 142.825, 139.024 145.188, 139.015 147.250 C 139.003 150.328, 138.642 151, 137 151 C 135.615 151, 135 150.333, 135 148.833 C 135 147.642, 134.732 146.934, 134.405 147.262 C 133.409 148.258, 135.097 154.100, 136.541 154.654 C 137.285 154.940, 139.555 153.512, 141.585 151.481 C 144.428 148.639, 144.964 147.596, 143.918 146.949 C 143.170 146.487, 142.880 145.787, 143.273 145.394 C 143.666 145.001, 144.830 145.651, 145.861 146.840 C 148.197 149.534, 150.137 149.584, 152 147 C 152.793 145.900, 154.242 145, 155.221 145 C 156.376 145, 157.028 144.211, 157.079 142.750 C 157.122 141.512, 157.385 141.063, 157.662 141.750 C 157.940 142.438, 159.265 143, 160.608 143 C 162.521 143, 163.180 142.350, 163.650 140 C 164.259 136.956, 165.374 136.178, 166.505 138.008 C 167.398 139.453, 170 136.585, 170 134.155 C 170 133.061, 169.438 131.938, 168.750 131.659 C 167.784 131.268, 167.814 130.933, 168.881 130.186 C 170.051 129.367, 170.030 128.535, 168.738 124.746 C 166.791 119.030, 167.955 116.490, 170.944 119.935 C 172.075 121.239, 173 122.708, 173 123.198 C 173 123.689, 174.125 122.966, 175.500 121.591 C 179.274 117.816, 178.787 116, 174 116 C 171.800 116, 170 115.609, 170 115.130 C 170 114.652, 167.890 114.022, 165.311 113.732 C 162.683 113.435, 160.107 112.499, 159.451 111.602 C 158.125 109.789, 157 109.512, 157 111 M 126 116.469 C 126 120.030, 126.305 120.820, 127.500 120.362 C 129.317 119.664, 129.488 116.394, 127.750 115.583 C 126.752 115.118, 126.753 114.882, 127.756 114.415 C 129.103 113.787, 128.500 112, 126.941 112 C 126.423 112, 126 114.011, 126 116.469 M 213 114 C 213 115.111, 213.667 116, 214.500 116 C 215.333 116, 216 115.111, 216 114 C 216 112.889, 215.333 112, 214.500 112 C 213.667 112, 213 112.889, 213 114 M 116 115 C 116 115.550, 116.450 116, 117 116 C 117.550 116, 118 115.550, 118 115 C 118 114.450, 117.550 114, 117 114 C 116.450 114, 116 114.450, 116 115 M 317 115 C 317 115.550, 317.450 116, 318 116 C 318.550 116, 319 115.550, 319 115 C 319 114.450, 318.550 114, 318 114 C 317.450 114, 317 114.450, 317 115 M 325.607 115.582 C 324.497 118.474, 324.978 120, 327 120 C 328.100 120, 329 119.550, 329 119 C 329 118.450, 329.675 118, 330.500 118 C 331.333 118, 332 117.111, 332 116 C 332 114.461, 331.333 114, 329.107 114 C 327.391 114, 325.967 114.644, 325.607 115.582 M 79.574 117.667 C 79.222 118.584, 79.399 119.799, 79.967 120.367 C 80.678 121.078, 81 120.557, 81 118.700 C 81 115.615, 80.501 115.253, 79.574 117.667 M 180 117 C 180 117.550, 180.900 118, 182 118 C 183.100 118, 184 117.550, 184 117 C 184 116.450, 183.100 116, 182 116 C 180.900 116, 180 116.450, 180 117 M 185 117.418 C 185 120.176, 186.237 122, 188.107 122 C 189.544 122, 190 121.277, 190 119 C 190 116.467, 189.611 116, 187.500 116 C 186.009 116, 185 116.572, 185 117.418 M 291.126 117.628 C 289.956 118.950, 289.982 119.411, 291.299 120.727 C 292.284 121.712, 293.508 122, 294.672 121.520 C 295.889 121.019, 296.082 120.611, 295.250 120.300 C 294.563 120.043, 294 118.971, 294 117.917 C 294 115.620, 292.993 115.519, 291.126 117.628 M 213 119 C 213 119.550, 213.900 120, 215 120 C 216.100 120, 217 119.550, 217 119 C 217 118.450, 216.100 118, 215 118 C 213.900 118, 213 118.450, 213 119 M 146.149 121.604 C 145.406 122.444, 145.004 123.338, 145.256 123.589 C 145.961 124.295, 149 122.902, 149 121.874 C 149 121.372, 150.125 121.244, 151.500 121.589 C 153.040 121.976, 154 121.791, 154 121.108 C 154 119.449, 147.703 119.846, 146.149 121.604 M 207 121.893 C 207 124.179, 209.324 125.276, 210.878 123.722 C 212.791 121.809, 212.122 120, 209.500 120 C 207.714 120, 207 120.540, 207 121.893 M 252 121.059 C 252 121.641, 252.450 121.840, 253 121.500 C 253.550 121.160, 254 120.684, 254 120.441 C 254 120.198, 253.550 120, 253 120 C 252.450 120, 252 120.477, 252 121.059 M 83 122.788 C 83 123.221, 84.800 123.647, 87 123.735 C 89.200 123.822, 91 123.468, 91 122.947 C 91 122.426, 89.200 122, 87 122 C 84.800 122, 83 122.354, 83 122.788 M 265 123 C 265 123.550, 265.450 124, 266 124 C 266.550 124, 267 123.550, 267 123 C 267 122.450, 266.550 122, 266 122 C 265.450 122, 265 122.450, 265 123 M 279.129 123.271 C 277.973 124.427, 277.547 128, 278.566 128 C 280.224 128, 286 123.901, 286 122.724 C 286 121.766, 280.170 122.230, 279.129 123.271 M 342.150 123.950 C 342.370 124.610, 342.876 125.116, 343.275 125.075 C 344.471 124.951, 344.239 123.580, 342.950 123.150 C 342.290 122.930, 341.930 123.290, 342.150 123.950 M 95 125.559 C 95 126.416, 95.450 126.840, 96 126.500 C 96.550 126.160, 97 125.459, 97 124.941 C 97 124.423, 96.550 124, 96 124 C 95.450 124, 95 124.702, 95 125.559 M 275 125 C 275 125.550, 275.450 126, 276 126 C 276.550 126, 277 125.550, 277 125 C 277 124.450, 276.550 124, 276 124 C 275.450 124, 275 124.450, 275 125 M 311.201 125.255 C 310.269 126.380, 310.218 127.016, 311.018 127.511 C 312.498 128.426, 313.255 127.558, 312.838 125.423 C 312.534 123.860, 312.371 123.844, 311.201 125.255 M 87 127 C 87 127.550, 87.450 128, 88 128 C 88.550 128, 89 127.550, 89 127 C 89 126.450, 88.550 126, 88 126 C 87.450 126, 87 126.450, 87 127 M 159 126.806 C 159 127.328, 159.675 128.315, 160.500 129 C 161.325 129.685, 162 129.933, 162 129.551 C 162 129.169, 161.325 128.182, 160.500 127.357 C 159.675 126.532, 159 126.284, 159 126.806 M 145 129 C 145 129.550, 145.450 130, 146 130 C 146.550 130, 147 129.550, 147 129 C 147 128.450, 146.550 128, 146 128 C 145.450 128, 145 128.450, 145 129 M 274.660 130.192 C 274.211 131.911, 273.784 132.184, 272.911 131.311 C 271.576 129.976, 268.985 130.674, 269.033 132.357 C 269.061 133.349, 276.003 137.330, 276.623 136.710 C 276.750 136.583, 276.999 134.732, 277.177 132.595 C 277.533 128.315, 275.627 126.495, 274.660 130.192 M 73.200 131.200 C 71.567 132.833, 71.692 134, 73.500 134 C 74.333 134, 75 133.111, 75 132 C 75 129.669, 74.814 129.586, 73.200 131.200 M 101 132 C 101 133.100, 101.173 134, 101.383 134 C 101.594 134, 102.002 133.100, 102.290 132 C 102.577 130.900, 102.405 130, 101.906 130 C 101.408 130, 101 130.900, 101 132 M 290.250 132.500 C 290.250 134.278, 290.792 135, 292.125 135 C 294.182 135, 294.723 137.592, 292.801 138.233 C 292.025 138.492, 292.168 138.851, 293.207 139.249 C 294.139 139.607, 295.511 139.093, 296.479 138.023 C 298.045 136.293, 298.020 136.141, 296.073 135.523 C 294.933 135.161, 294 134.044, 294 133.040 C 294 132.036, 293.288 130.941, 292.418 130.607 C 290.209 129.759, 290.250 129.723, 290.250 132.500 M 296 131.500 C 296 132.333, 296.889 133, 298 133 C 299.111 133, 300 132.333, 300 131.500 C 300 130.667, 299.111 130, 298 130 C 296.889 130, 296 130.667, 296 131.500 M 95 132.559 C 95 133.416, 95.450 133.840, 96 133.500 C 96.550 133.160, 97 132.459, 97 131.941 C 97 131.423, 96.550 131, 96 131 C 95.450 131, 95 131.702, 95 132.559 M 141 132.500 C 141 133.325, 141.450 134, 142 134 C 142.550 134, 143 133.325, 143 132.500 C 143 131.675, 142.550 131, 142 131 C 141.450 131, 141 131.675, 141 132.500 M 285 133.500 C 285 134.325, 285.675 135, 286.500 135 C 287.325 135, 288 134.325, 288 133.500 C 288 132.675, 287.325 132, 286.500 132 C 285.675 132, 285 132.675, 285 133.500 M 81.500 134 C 81.160 134.550, 81.359 135, 81.941 135 C 82.523 135, 83 134.550, 83 134 C 83 133.450, 82.802 133, 82.559 133 C 82.316 133, 81.840 133.450, 81.500 134 M 115.250 134.662 C 114.033 135.153, 113.431 139, 114.571 139 C 115.553 139, 118 136.196, 118 135.071 C 118 133.940, 117.299 133.835, 115.250 134.662 M 151.750 134.662 C 152.438 134.940, 153 136.281, 153 137.642 C 153 139.038, 153.436 139.848, 154 139.500 C 156.457 137.981, 154.230 133.717, 151.168 134.079 C 150.801 134.122, 151.063 134.385, 151.750 134.662 M 207.015 136.750 C 207.007 137.988, 207.450 139, 208 139 C 209.253 139, 209.253 137.939, 208 136 C 207.216 134.787, 207.028 134.931, 207.015 136.750 M 191.750 136.689 C 190.787 136.941, 190 137.789, 190 138.573 C 190 140.431, 190.253 140.382, 193 138 C 195.292 136.012, 195.102 135.813, 191.750 136.689 M 270.250 136.662 C 268.820 137.239, 268.551 139, 269.893 139 C 270.384 139, 271.045 138.325, 271.362 137.500 C 271.678 136.675, 271.839 136.036, 271.719 136.079 C 271.598 136.122, 270.938 136.385, 270.250 136.662 M 283.657 137.912 C 284.557 138.964, 285.956 139.570, 286.764 139.260 C 287.892 138.827, 287.683 138.390, 285.867 137.383 C 282.508 135.521, 281.762 135.699, 283.657 137.912 M 52 137.878 C 52 139.138, 54.935 141.398, 55.648 140.686 C 56.672 139.662, 55.143 137, 53.531 137 C 52.689 137, 52 137.395, 52 137.878 M 333.677 138.792 C 332.536 139.032, 332.068 139.735, 332.427 140.669 C 332.742 141.491, 333 142.352, 333 142.582 C 333 143.644, 335.844 142.849, 336.300 141.659 C 337.044 139.723, 335.787 138.350, 333.677 138.792 M 75.607 140.582 C 75.273 141.452, 75 143.252, 75 144.582 C 75 147.667, 77.706 147.805, 78.294 144.750 C 78.608 143.123, 78.765 143.400, 78.864 145.750 C 79.009 149.212, 81 150.377, 81 147 C 81 145.900, 81.450 145, 82 145 C 83.485 145, 83.210 142.067, 81.571 140.429 C 79.670 138.527, 76.363 138.612, 75.607 140.582 M 153 142 C 153 142.550, 153.450 143, 154 143 C 154.550 143, 155 142.550, 155 142 C 155 141.450, 154.550 141, 154 141 C 153.450 141, 153 141.450, 153 142 M 186 142 C 186 142.550, 186.675 143, 187.500 143 C 188.325 143, 189 142.550, 189 142 C 189 141.450, 188.325 141, 187.500 141 C 186.675 141, 186 141.450, 186 142 M 191.597 142.607 C 190.728 144.873, 190.802 145, 193 145 C 195.361 145, 195.509 144.366, 193.597 142.454 C 192.393 141.250, 192.110 141.272, 191.597 142.607 M 86.607 144.582 C 85.668 147.029, 85.872 147.271, 87.500 145.643 C 89.200 143.943, 89.417 143, 88.107 143 C 87.616 143, 86.941 143.712, 86.607 144.582 M 106 144 C 106 144.550, 106.450 145, 107 145 C 107.550 145, 108 144.550, 108 144 C 108 143.450, 107.550 143, 107 143 C 106.450 143, 106 143.450, 106 144 M 119.607 144.582 C 118.749 146.817, 118.817 147, 120.500 147 C 121.333 147, 122 146.111, 122 145 C 122 142.616, 120.464 142.347, 119.607 144.582 M 53 147 C 53 148.111, 53.667 149, 54.500 149 C 55.333 149, 56 148.111, 56 147 C 56 145.889, 55.333 145, 54.500 145 C 53.667 145, 53 145.889, 53 147 M 157.500 147 C 158.095 148.874, 156.666 149.893, 155.747 148.250 C 155.517 147.838, 155.452 148.030, 155.604 148.677 C 156.173 151.093, 153.589 151.851, 149.538 150.455 C 145.389 149.025, 143.517 149.386, 146.029 151.131 C 147.142 151.904, 147.196 152.276, 146.250 152.659 C 144.769 153.261, 144.553 157, 146 157 C 146.550 157, 147 157.900, 147 159 C 147 160.100, 147.450 161, 148 161 C 148.550 161, 149 159.650, 149 158 C 149 155.710, 149.454 155, 150.917 155 C 151.971 155, 153.019 155.558, 153.247 156.241 C 153.548 157.144, 154.116 157.027, 155.330 155.813 C 156.249 154.894, 157 153.723, 157 153.210 C 157 152.697, 158.125 152.492, 159.500 152.755 C 160.875 153.018, 162 153.578, 162 154 C 162 154.422, 162.900 155.002, 164 155.290 C 165.100 155.577, 166 156.530, 166 157.406 C 166 159.538, 165.568 159.431, 162.426 156.519 C 159.709 154.001, 157.421 154.048, 158.400 156.601 C 158.774 157.574, 158.161 158, 156.389 158 C 154.060 158, 153.900 158.266, 154.522 161.100 C 155.131 163.873, 154.993 164.133, 153.211 163.567 C 151.620 163.062, 150.995 163.577, 150.109 166.117 C 149.044 169.173, 148.628 175.814, 149.662 173.250 C 149.940 172.563, 150.750 172, 151.462 172 C 152.174 172, 153.314 170.656, 153.995 169.013 C 155.178 166.157, 157.475 165.599, 156.388 168.431 C 155.599 170.489, 157.629 171.228, 159.348 169.509 C 161.514 167.343, 163.648 167.649, 164.524 170.250 C 165.236 172.363, 165.309 172.319, 165.729 169.529 C 165.976 167.888, 165.689 166.396, 165.088 166.196 C 164.489 165.996, 164 165.210, 164 164.448 C 164 163.589, 163.392 163.296, 162.399 163.677 C 160.703 164.328, 159.031 162.502, 159.031 160 C 159.031 158.760, 159.182 158.739, 159.904 159.878 C 160.384 160.636, 161.236 160.972, 161.798 160.625 C 163.286 159.705, 166 160.985, 166 162.607 C 166 163.373, 166.450 164, 167 164 C 167.550 164, 168.014 164.563, 168.032 165.250 C 168.049 165.938, 168.702 167.342, 169.481 168.372 C 170.763 170.065, 171.048 170.095, 172.453 168.690 C 173.857 167.286, 173.814 167.076, 172.003 166.501 C 169.101 165.580, 169.099 159, 172 159 C 173.100 159, 174 158.490, 174 157.867 C 174 156.611, 177.823 153, 179.153 153 C 179.619 153, 180 152.325, 180 151.500 C 180 150.667, 179.111 150, 178 150 C 176.900 150, 176 150.439, 176 150.975 C 176 151.525, 174.692 151.688, 173 151.350 C 170.420 150.834, 170 151.047, 170 152.875 C 170 155.389, 168.779 155.556, 165.608 153.479 C 163.909 152.366, 163.413 151.291, 163.759 149.479 C 164.143 147.472, 163.830 147, 162.117 147 C 160.952 147, 160 146.550, 160 146 C 160 145.450, 159.295 145, 158.433 145 C 157.320 145, 157.050 145.581, 157.500 147 M 170 146 C 170 146.550, 170.900 147, 172 147 C 173.100 147, 174 146.550, 174 146 C 174 145.450, 173.100 145, 172 145 C 170.900 145, 170 145.450, 170 146 M 356 146 C 356 146.550, 356.450 147, 357 147 C 357.550 147, 358 146.550, 358 146 C 358 145.450, 357.550 145, 357 145 C 356.450 145, 356 145.450, 356 146 M 209 148 C 209 148.550, 209.450 149, 210 149 C 210.550 149, 211 148.550, 211 148 C 211 147.450, 210.550 147, 210 147 C 209.450 147, 209 147.450, 209 148 M 228 148.500 C 228 149.325, 228.450 150, 229 150 C 229.550 150, 230 150.675, 230 151.500 C 230 152.325, 229.475 153, 228.833 153 C 228.192 153, 227.902 153.236, 228.190 153.524 C 229.553 154.886, 232 152.555, 232 149.893 C 232 147.667, 231.539 147, 230 147 C 228.889 147, 228 147.667, 228 148.500 M 258.310 148.431 C 256.697 150.269, 257.884 151.259, 259.619 149.524 C 260.379 148.764, 261 147.886, 261 147.571 C 261 146.565, 259.538 147.033, 258.310 148.431 M 84.622 151.129 C 83.139 152.861, 83.051 153.417, 84.149 154.114 C 86.421 155.553, 87 155.124, 87 152 C 87 148.425, 86.952 148.407, 84.622 151.129 M 215 149.848 C 215 151.013, 220.827 151.089, 221.542 149.933 C 221.859 149.420, 220.516 149, 218.559 149 C 216.602 149, 215 149.382, 215 149.848 M 107 151.800 C 107 153.281, 109.232 154.848, 110.596 154.325 C 111.722 153.893, 111.714 153.571, 110.546 152.403 C 109.014 150.871, 107 150.528, 107 151.800 M 305 153.941 C 305 154.459, 305.450 155.160, 306 155.500 C 306.550 155.840, 307 155.416, 307 154.559 C 307 153.702, 306.550 153, 306 153 C 305.450 153, 305 153.423, 305 153.941 M 217 155.531 C 217 157.044, 219.637 158.697, 220.567 157.767 C 220.831 157.502, 220.763 156.547, 220.417 155.643 C 219.621 153.570, 217 153.484, 217 155.531 M 182 156.059 C 182 156.641, 182.450 156.840, 183 156.500 C 183.550 156.160, 184 155.684, 184 155.441 C 184 155.198, 183.550 155, 183 155 C 182.450 155, 182 155.477, 182 156.059 M 137.360 161.504 C 137.016 162.401, 137.184 163.584, 137.733 164.133 C 138.398 164.798, 138.913 164.442, 139.272 163.067 C 139.925 160.571, 138.245 159.198, 137.360 161.504 M 131.405 162.387 C 131.064 163.274, 130.159 164, 129.393 164 C 127.596 164, 127.610 165.431, 129.422 166.935 C 130.519 167.846, 131.317 167.819, 132.922 166.817 C 135.374 165.285, 135.567 163.715, 133.512 162.010 C 132.307 161.010, 131.906 161.081, 131.405 162.387 M 194 165 C 194 165.550, 194.675 166, 195.500 166 C 196.325 166, 197 165.550, 197 165 C 197 164.450, 196.325 164, 195.500 164 C 194.675 164, 194 164.450, 194 165 M 291.667 164.667 C 290.449 165.885, 290.978 168, 292.500 168 C 293.333 168, 294 167.111, 294 166 C 294 164.008, 292.934 163.399, 291.667 164.667 M 334 165.441 C 334 166.234, 334.403 167.131, 334.895 167.435 C 335.925 168.071, 337.166 165.499, 336.264 164.598 C 335.191 163.525, 334 163.968, 334 165.441 M 299.250 165.706 C 295.677 166.394, 296.640 168, 300.625 168 C 304.119 168, 304.228 168.108, 303.650 171 C 303.155 173.477, 303.376 174, 304.918 174 C 307.307 174, 308.489 171.125, 306.426 170.333 C 305.578 170.008, 305.119 169.132, 305.405 168.386 C 305.831 167.276, 302.934 164.654, 301.816 165.136 C 301.642 165.211, 300.488 165.467, 299.250 165.706 M 342.639 165.694 C 341.513 166.820, 341.954 168, 343.500 168 C 344.325 168, 345 167.577, 345 167.059 C 345 165.798, 343.438 164.895, 342.639 165.694 M 237.250 167.662 C 236.563 167.940, 236 169.098, 236 170.236 C 236 172.250, 236.054 172.244, 238 170 C 240.680 166.910, 240.501 166.350, 237.250 167.662 M 36.250 169.496 C 34.518 171.463, 34.679 172, 37 172 C 38.100 172, 39.014 172.563, 39.030 173.250 C 39.048 173.984, 39.462 173.813, 40.032 172.836 C 42.076 169.334, 38.879 166.510, 36.250 169.496 M 139.751 171.825 C 140.719 172.440, 140.549 173.557, 139.001 176.761 C 136.494 181.951, 136.505 182.210, 139.222 181.820 C 140.966 181.569, 141.630 180.556, 142.308 177.112 C 143.164 172.764, 142.364 171.031, 139.500 171.031 C 138.950 171.031, 139.063 171.388, 139.751 171.825 M 263 173 C 263 173.550, 263.450 174, 264 174 C 264.550 174, 265 173.550, 265 173 C 265 172.450, 264.550 172, 264 172 C 263.450 172, 263 172.450, 263 173 M 312 175 C 310.862 175.736, 311.284 175.973, 313.750 175.985 C 315.538 175.993, 317 175.550, 317 175 C 317 173.730, 313.965 173.730, 312 175 M 40.232 178 C 40.919 179.100, 41.715 180, 42 180 C 42.285 180, 43.081 179.100, 43.768 178 C 44.913 176.166, 44.767 176, 42 176 C 39.233 176, 39.087 176.166, 40.232 178 M 82.607 177.582 C 81.407 180.710, 81.911 183.971, 83.500 183.362 C 84.325 183.045, 85 182.197, 85 181.476 C 85 180.756, 85.558 179.981, 86.241 179.753 C 87.144 179.452, 87.027 178.884, 85.813 177.670 C 83.746 175.604, 83.370 175.593, 82.607 177.582 M 89 177.893 C 89 178.934, 89.675 180.045, 90.500 180.362 C 92.102 180.976, 92.372 180.134, 91.393 177.582 C 90.553 175.394, 89 175.596, 89 177.893 M 180.015 178.250 C 180.028 180.069, 180.216 180.213, 181 179 C 182.253 177.061, 182.253 176, 181 176 C 180.450 176, 180.007 177.012, 180.015 178.250 M 238 177 C 238 177.550, 238.450 178, 239 178 C 239.550 178, 240 178.675, 240 179.500 C 240 180.325, 240.450 181, 241 181 C 241.550 181, 242 179.875, 242 178.500 C 242 176.667, 241.467 176, 240 176 C 238.900 176, 238 176.450, 238 177 M 294 177.879 C 294 179.023, 295.172 180.243, 297 181 C 298.973 181.817, 300 182.954, 300 184.321 C 300 185.812, 300.306 186.094, 301.082 185.318 C 302.199 184.201, 300.363 180, 298.759 180 C 298.342 180, 298 179.100, 298 178 C 298 176.667, 297.333 176, 296 176 C 294.710 176, 294 176.667, 294 177.879 M 65.149 179.664 C 64.406 180.471, 64.076 181.409, 64.416 181.749 C 65.253 182.586, 67.316 180.424, 66.862 179.186 C 66.663 178.641, 65.894 178.856, 65.149 179.664 M 144.250 180.662 C 142.470 181.381, 142.699 184, 144.542 184 C 145.390 184, 147.050 183.100, 148.230 182 L 150.377 180 147.939 180.079 C 146.597 180.122, 144.938 180.385, 144.250 180.662 M 275 182 C 275 183.100, 275.209 184, 275.465 184 C 275.720 184, 276.411 183.100, 277 182 C 277.854 180.404, 277.760 180, 276.535 180 C 275.667 180, 275 180.869, 275 182 M 351.500 181 C 351.840 181.550, 352.541 182, 353.059 182 C 353.577 182, 354 181.550, 354 181 C 354 180.450, 353.298 180, 352.441 180 C 351.584 180, 351.160 180.450, 351.500 181 M 113 182.531 C 113 183.339, 113.675 184, 114.500 184 C 115.325 184, 116 183.598, 116 183.107 C 116 182.616, 115.325 181.955, 114.500 181.638 C 113.586 181.288, 113 181.637, 113 182.531 M 338 183 C 338 183.550, 338.900 184, 340 184 C 341.100 184, 342 183.550, 342 183 C 342 182.450, 341.100 182, 340 182 C 338.900 182, 338 182.450, 338 183 M 149 185.500 C 149 186.325, 149.450 187, 150 187 C 150.550 187, 151 186.325, 151 185.500 C 151 184.675, 150.550 184, 150 184 C 149.450 184, 149 184.675, 149 185.500 M 47 186.500 C 47 188.151, 48.761 188.438, 50.834 187.124 C 51.898 186.449, 51.831 186.149, 50.502 185.639 C 47.915 184.646, 47 184.871, 47 186.500 M 68 186.883 C 68 187.946, 72.006 189.114, 73.174 188.393 C 74.988 187.271, 73.834 186, 71 186 C 69.350 186, 68 186.398, 68 186.883 M 153 186.393 C 153 186.609, 153.675 187.045, 154.500 187.362 C 155.325 187.678, 156 187.501, 156 186.969 C 156 186.436, 155.325 186, 154.500 186 C 153.675 186, 153 186.177, 153 186.393 M 330.393 189.582 C 330.727 190.452, 331.014 191.689, 331.030 192.332 C 331.047 192.974, 331.521 192.709, 332.085 191.742 C 333.178 189.864, 332.555 188, 330.834 188 C 330.258 188, 330.059 188.712, 330.393 189.582 M 68 192.594 C 68 194.333, 68.554 195, 70 195 C 71.292 195, 72 194.333, 72 193.117 C 72 192.074, 71.107 191, 70 190.710 C 68.409 190.294, 68 190.680, 68 192.594 M 154.250 190.708 C 153.563 190.960, 153 191.804, 153 192.583 C 153 193.363, 152.550 194, 152 194 C 151.450 194, 151 194.675, 151 195.500 C 151 197.935, 154.548 197.213, 156.011 194.480 C 157.425 191.838, 156.511 189.879, 154.250 190.708 M 315.039 191.928 C 313.952 193.958, 314.593 197, 316.107 197 C 316.598 197, 317 195.425, 317 193.500 C 317 189.532, 316.525 189.151, 315.039 191.928 M 82.459 193.067 C 81.433 194.727, 82.354 194.957, 83.789 193.399 C 84.499 192.630, 84.638 192, 84.098 192 C 83.559 192, 82.821 192.480, 82.459 193.067 M 159.667 192.667 C 158.516 193.817, 158.938 195, 160.500 195 C 161.325 195, 162 194.325, 162 193.500 C 162 191.938, 160.817 191.516, 159.667 192.667 M 175.211 193.538 C 174.113 194.783, 174.373 195, 176.961 195 C 178.632 195, 180 195.450, 180 196 C 180 196.550, 180.900 197, 182 197 C 183.100 197, 184 196.550, 184 196 C 184 195.450, 183.550 195, 183 195 C 182.450 195, 182 194.325, 182 193.500 C 182 191.533, 176.954 191.562, 175.211 193.538 M 193.250 193.031 C 192.012 193.529, 190.986 194.513, 190.970 195.218 C 190.952 195.974, 190.521 195.782, 189.920 194.750 C 188.519 192.345, 187.202 192.557, 186.820 195.250 C 186.644 196.488, 185.488 197.944, 184.250 198.487 C 181.632 199.636, 181.546 199.997, 183.318 202.420 C 184.756 204.387, 185.708 203.832, 188.969 199.125 C 189.926 197.743, 191.076 197.207, 192.267 197.585 C 194.538 198.306, 197 196.377, 197 193.878 C 197 191.804, 196.553 191.704, 193.250 193.031 M 298.629 195.477 C 298.951 196.315, 299.841 197, 300.607 197 C 302.560 197, 302.341 196.253, 300.023 195.012 C 298.409 194.149, 298.153 194.234, 298.629 195.477 M 259 200 C 259 201.650, 258.550 203, 258 203 C 257.450 203, 257 202.550, 257 202 C 257 201.450, 256.550 201, 256 201 C 255.450 201, 255 201.900, 255 203 C 255 204.100, 255.450 205, 256 205 C 257.454 205, 257.229 209.752, 255.750 210.280 C 255.063 210.525, 254.773 211.023, 255.107 211.387 C 256.499 212.901, 259 210.657, 259 207.893 C 259 205.667, 259.461 205, 261 205 C 262.100 205, 263 205.450, 263 206 C 263 207.485, 265.933 207.210, 267.571 205.571 C 269.509 203.634, 269.369 203, 267 203 C 265.900 203, 265 203.450, 265 204 C 265 204.550, 264.550 205, 264 205 C 263.450 205, 263 203.200, 263 201 C 263 197.667, 262.667 197, 261 197 C 259.444 197, 259 197.667, 259 200 M 338.697 198.393 C 338.288 199.434, 338.189 200.522, 338.476 200.810 C 339.389 201.722, 340.191 200.227, 339.809 198.328 C 339.459 196.588, 339.405 196.591, 338.697 198.393 M 41 199.500 C 41 200.325, 41.450 201, 42 201 C 42.550 201, 43 200.325, 43 199.500 C 43 198.675, 42.550 198, 42 198 C 41.450 198, 41 198.675, 41 199.500 M 168 200 C 168 200.550, 168.450 201, 169 201 C 169.550 201, 170 200.550, 170 200 C 170 199.450, 169.550 199, 169 199 C 168.450 199, 168 199.450, 168 200 M 174 200 C 174 200.550, 174.450 201, 175 201 C 175.550 201, 176 200.550, 176 200 C 176 199.450, 175.550 199, 175 199 C 174.450 199, 174 199.450, 174 200 M 240.079 200.583 C 240.127 201.748, 240.364 201.985, 240.683 201.188 C 240.972 200.466, 240.936 199.603, 240.604 199.271 C 240.272 198.939, 240.036 199.529, 240.079 200.583 M 372.607 200.582 C 371.717 202.901, 371.786 203, 374.300 203 C 376.575 203, 379 201.349, 379 199.800 C 379 198.268, 373.224 198.975, 372.607 200.582 M 170 203.500 C 170 204.325, 169.550 205, 169 205 C 167.086 205, 168.032 206.511, 171.006 208.203 L 174 209.907 174 205.953 C 174 202.667, 173.663 202, 172 202 C 170.889 202, 170 202.667, 170 203.500 M 345.158 205 C 345.158 206.375, 345.385 206.938, 345.662 206.250 C 345.940 205.563, 345.940 204.438, 345.662 203.750 C 345.385 203.063, 345.158 203.625, 345.158 205 M 32.211 206.601 C 31.501 207.370, 31.362 208, 31.902 208 C 32.940 208, 34.443 206.098, 33.850 205.534 C 33.658 205.351, 32.920 205.831, 32.211 206.601 M 229.295 206.448 C 228.341 207.534, 228.410 207.943, 229.626 208.410 C 231.871 209.272, 232 209.195, 232 207 C 232 204.690, 231.016 204.489, 229.295 206.448 M 39 212.167 C 39 215.777, 40.194 215.280, 40.597 211.502 C 40.744 210.126, 40.444 209, 39.932 209 C 39.419 209, 39 210.425, 39 212.167 M 346.047 211.911 C 345.349 213.217, 345.332 214.087, 345.997 214.498 C 347.335 215.325, 349 214.218, 349 212.500 C 349 210.188, 347.166 209.822, 346.047 211.911 M 165.638 214.500 C 165.955 215.325, 166.616 216, 167.107 216 C 167.598 216, 168 215.325, 168 214.500 C 168 213.675, 167.339 213, 166.531 213 C 165.637 213, 165.288 213.586, 165.638 214.500 M 35 216.059 C 35 216.641, 35.450 216.840, 36 216.500 C 36.550 216.160, 37 215.684, 37 215.441 C 37 215.198, 36.550 215, 36 215 C 35.450 215, 35 215.477, 35 216.059 M 130.813 217.683 C 131.534 217.972, 132.397 217.936, 132.729 217.604 C 133.061 217.272, 132.471 217.036, 131.417 217.079 C 130.252 217.127, 130.015 217.364, 130.813 217.683 M 193.250 219.031 C 190.894 219.978, 190.333 221.470, 191.956 222.473 C 192.482 222.798, 192.657 223.730, 192.345 224.543 C 191.929 225.628, 192.246 225.843, 193.533 225.349 C 194.658 224.917, 195.759 225.318, 196.597 226.463 C 198.082 228.495, 201 227.877, 201 225.531 C 201 224.689, 201.450 224, 202 224 C 202.550 224, 203 224.900, 203 226 C 203 227.333, 203.667 228, 205 228 C 206.100 228, 207 228.450, 207 229 C 207 229.550, 208.800 230, 211 230 C 213.200 230, 215 229.550, 215 229 C 215 228.450, 215.675 228, 216.500 228 C 219.235 228, 218.054 226.352, 214.547 225.276 C 212.028 224.503, 210.993 224.522, 210.717 225.349 C 210.475 226.076, 209.715 225.858, 208.595 224.738 C 207.041 223.183, 207.022 222.929, 208.426 222.390 C 211.422 221.240, 210.148 219.194, 206.500 219.297 C 202.996 219.396, 201.901 220.390, 204.250 221.338 C 204.964 221.626, 204.709 221.876, 203.658 221.921 C 202.644 221.964, 200.671 221.100, 199.273 220 C 196.439 217.771, 196.401 217.765, 193.250 219.031 M 70 223 C 70 223.550, 70.450 224, 71 224 C 71.550 224, 72 223.550, 72 223 C 72 222.450, 71.550 222, 71 222 C 70.450 222, 70 222.450, 70 223 M 101.590 222.854 C 101.300 223.323, 102.174 224.214, 103.531 224.832 C 105.703 225.822, 106 225.719, 106 223.979 C 106 221.966, 102.665 221.115, 101.590 222.854 M 130.861 223.967 L 128.500 225.933 132.750 225.967 C 136.344 225.995, 137 225.691, 137 224 C 137 221.390, 133.973 221.374, 130.861 223.967 M 300 223.117 C 300 223.734, 299.122 224.004, 298.037 223.720 C 296.957 223.437, 295.552 223.835, 294.914 224.603 C 293.986 225.721, 294.162 226, 295.794 226 C 296.916 226, 298.047 226.563, 298.309 227.250 C 298.626 228.085, 299.651 227.601, 301.392 225.794 C 304.525 222.542, 304.612 222, 302 222 C 300.900 222, 300 222.502, 300 223.117 M 141.638 224.500 C 141.955 225.325, 142.391 226, 142.607 226 C 142.823 226, 143 225.325, 143 224.500 C 143 223.675, 142.564 223, 142.031 223 C 141.499 223, 141.322 223.675, 141.638 224.500 M 229.750 223.689 C 227.354 224.315, 227.537 226, 230 226 C 231.111 226, 232 225.333, 232 224.500 C 232 223.675, 231.887 223.052, 231.750 223.116 C 231.613 223.180, 230.713 223.438, 229.750 223.689 M 315 224.500 C 315 225.325, 315.450 226, 316 226 C 316.550 226, 317 226.900, 317 228 C 317 229.100, 317.450 230, 318 230 C 318.550 230, 319 229.550, 319 229 C 319 228.450, 319.900 228, 321 228 C 323.636 228, 323.539 226.491, 320.777 224.557 C 317.956 222.580, 315 222.551, 315 224.500 M 45.565 224.895 C 45.260 225.388, 45.669 226.043, 46.474 226.352 C 48.036 226.951, 49.371 225.704, 48.306 224.639 C 47.402 223.735, 46.213 223.846, 45.565 224.895 M 54.543 224.931 C 54.226 225.443, 54.425 226.144, 54.984 226.490 C 55.543 226.835, 56 226.416, 56 225.559 C 56 223.802, 55.400 223.544, 54.543 224.931 M 126 226.500 C 126 227.325, 126.450 228, 127 228 C 127.550 228, 128 227.325, 128 226.500 C 128 225.675, 127.550 225, 127 225 C 126.450 225, 126 225.675, 126 226.500 M 43 227 C 43 227.550, 43.477 228, 44.059 228 C 44.641 228, 44.840 227.550, 44.500 227 C 44.160 226.450, 43.684 226, 43.441 226 C 43.198 226, 43 226.450, 43 227 M 68 227 C 68 227.550, 68.450 228, 69 228 C 69.550 228, 70 227.550, 70 227 C 70 226.450, 69.550 226, 69 226 C 68.450 226, 68 226.450, 68 227 M 183.500 229.681 C 184.600 229.984, 185.872 230.742, 186.326 231.366 C 186.872 232.115, 187.015 231.991, 186.748 231 C 186.525 230.175, 185.254 229.417, 183.922 229.315 C 182.012 229.170, 181.923 229.247, 183.500 229.681 M 87 233 C 87 233.550, 87.450 234, 88 234 C 88.550 234, 89 233.550, 89 233 C 89 232.450, 88.550 232, 88 232 C 87.450 232, 87 232.450, 87 233 M 99 235 C 99 235.550, 99.900 236, 101 236 C 102.100 236, 103 235.550, 103 235 C 103 234.450, 102.100 234, 101 234 C 99.900 234, 99 234.450, 99 235 M 104 235 C 104 235.550, 104.450 236, 105 236 C 105.550 236, 106 235.550, 106 235 C 106 234.450, 105.550 234, 105 234 C 104.450 234, 104 234.450, 104 235 M 159.015 234.750 C 159.043 236.119, 160.882 238.452, 161.469 237.864 C 162.257 237.076, 161.002 234, 159.893 234 C 159.402 234, 159.007 234.338, 159.015 234.750 M 185.592 237.741 C 184.731 240.418, 185.525 242, 187.730 242 C 188.617 242, 190.165 242.745, 191.171 243.655 C 192.878 245.200, 193 245.191, 193 243.523 C 193 242.006, 193.642 241.815, 197.250 242.256 C 199.588 242.542, 200.938 242.564, 200.250 242.305 C 199.563 242.046, 199 240.971, 199 239.917 C 199 238.557, 198.298 238, 196.583 238 C 195.254 238, 193.904 237.438, 193.583 236.750 C 193.117 235.750, 192.883 235.750, 192.417 236.750 C 192.096 237.438, 190.783 238, 189.500 238 C 188.217 238, 186.975 237.438, 186.740 236.750 C 186.499 236.043, 186 236.473, 185.592 237.741 M 334 237 C 334 237.550, 334.900 238, 336 238 C 337.100 238, 338 237.550, 338 237 C 338 236.450, 337.100 236, 336 236 C 334.900 236, 334 236.450, 334 237 M 95.342 240.961 C 95.739 242.943, 95.426 244.431, 94.396 245.461 C 93.011 246.846, 93.314 247, 97.429 247 C 102.690 247, 103.523 245.228, 99.500 242.592 C 98.125 241.691, 97 240.289, 97 239.477 C 97 238.665, 96.494 238, 95.875 238 C 95.162 238, 94.967 239.083, 95.342 240.961 M 56 241.500 C 56 242.325, 56.450 243, 57 243 C 57.550 243, 58 242.325, 58 241.500 C 58 240.675, 57.550 240, 57 240 C 56.450 240, 56 240.675, 56 241.500 M 341.559 243.570 C 340.491 244.356, 338.605 245, 337.368 245 C 336.130 245, 334.821 245.481, 334.458 246.068 C 334.095 246.656, 333.133 246.881, 332.320 246.569 C 331.126 246.111, 330.971 246.628, 331.514 249.251 C 331.884 251.038, 332.929 253.080, 333.837 253.788 C 335.229 254.875, 335.621 254.776, 336.345 253.153 C 336.817 252.095, 338.233 250.678, 339.492 250.004 C 341.982 248.672, 344.451 244.813, 343.866 243.168 C 343.640 242.534, 342.756 242.688, 341.559 243.570 M 163.363 246.391 C 163.234 248.621, 163.812 249.152, 169.250 251.801 C 169.662 252.002, 170 251.454, 170 250.583 C 170 249.713, 169.626 249, 169.169 249 C 168.712 249, 167.736 247.875, 167 246.500 C 165.307 243.337, 163.541 243.284, 163.363 246.391 M 62 249 C 62 250.100, 62.450 251, 63 251 C 63.550 251, 64 250.100, 64 249 C 64 247.900, 63.550 247, 63 247 C 62.450 247, 62 247.900, 62 249 M 310.595 249.255 C 309.121 251.472, 309.003 252.299, 309.994 253.492 C 310.670 254.308, 310.963 255.655, 310.643 256.487 C 309.983 258.207, 310.821 261, 311.998 261 C 313.114 261, 313.744 254.343, 313.031 250.095 L 312.427 246.500 310.595 249.255 M 290 249.500 C 290 250.496, 290.997 251, 292.969 251 C 295.197 251, 295.794 250.626, 295.362 249.500 C 295.045 248.675, 293.709 248, 292.393 248 C 290.933 248, 290 248.585, 290 249.500 M 99 252 C 99 252.550, 99.450 253, 100 253 C 100.550 253, 101 252.550, 101 252 C 101 251.450, 100.550 251, 100 251 C 99.450 251, 99 251.450, 99 252 M 101.701 252.632 C 101.316 253.018, 101 254.158, 101 255.167 C 101 256.469, 101.745 257, 103.570 257 C 105.659 257, 106.079 256.582, 105.820 254.760 C 105.503 252.543, 103.055 251.278, 101.701 252.632 M 133.688 252.646 C 132.383 253.950, 133.006 255, 135.083 255 C 136.247 255, 136.992 254.476, 136.771 253.813 C 136.284 252.351, 134.614 251.719, 133.688 252.646 M 228 253.186 C 228 253.838, 227.022 255.413, 225.826 256.686 L 223.651 259 227.326 259 C 229.347 259, 231 259.482, 231 260.071 C 231 260.661, 231.675 260.468, 232.500 259.643 C 234.545 257.598, 234.383 256.256, 232 255.500 C 230.900 255.151, 230 254.221, 230 253.433 C 230 252.645, 229.550 252, 229 252 C 228.450 252, 228 252.533, 228 253.186 M 283.813 252.683 C 284.534 252.972, 285.397 252.936, 285.729 252.604 C 286.061 252.272, 285.471 252.036, 284.417 252.079 C 283.252 252.127, 283.015 252.364, 283.813 252.683 M 173.500 256 C 173.160 256.550, 173.584 257, 174.441 257 C 175.298 257, 176 256.550, 176 256 C 176 255.450, 175.577 255, 175.059 255 C 174.541 255, 173.840 255.450, 173.500 256 M 210 256 C 208.793 256.780, 208.951 256.972, 210.809 256.985 C 212.097 256.993, 212.845 256.558, 212.500 256 C 211.757 254.798, 211.861 254.798, 210 256 M 346.500 256 C 346.160 256.550, 346.359 257, 346.941 257 C 347.523 257, 348 256.550, 348 256 C 348 255.450, 347.802 255, 347.559 255 C 347.316 255, 346.840 255.450, 346.500 256 M 265 259 C 265 260.100, 265.450 261, 266 261 C 266.550 261, 267 260.100, 267 259 C 267 257.900, 266.550 257, 266 257 C 265.450 257, 265 257.900, 265 259 M 328.250 260.496 C 326.619 262.349, 326.670 263.813, 328.429 265.571 C 330.231 267.374, 330.782 267.361, 332.672 265.470 C 334.648 263.495, 333.637 258.985, 331.231 259.038 C 330.279 259.059, 328.938 259.715, 328.250 260.496 M 74 262 C 74 262.550, 74.675 263, 75.500 263 C 76.325 263, 77 262.550, 77 262 C 77 261.450, 76.325 261, 75.500 261 C 74.675 261, 74 261.450, 74 262 M 156.750 266.392 C 155.787 267.123, 155 268.628, 155 269.738 C 155 272.197, 157.514 274.596, 158.470 273.049 C 158.826 272.472, 160.216 272, 161.559 272 C 164.380 272, 164.959 268.816, 162.571 266.429 C 160.811 264.668, 159.036 264.657, 156.750 266.392 M 167 265.969 C 167 266.501, 167.675 266.678, 168.500 266.362 C 169.325 266.045, 170 265.609, 170 265.393 C 170 265.177, 169.325 265, 168.500 265 C 167.675 265, 167 265.436, 167 265.969 M 102 271 C 102 272.949, 103.061 273.606, 104.264 272.402 C 105.066 271.601, 104.017 269, 102.893 269 C 102.402 269, 102 269.900, 102 271 M 61.200 272.200 C 58.227 275.173, 61.287 277.737, 65.512 275.813 C 66.880 275.189, 68 274.391, 68 274.039 C 68 272.827, 65.596 271, 64 271 C 63.120 271, 61.860 271.540, 61.200 272.200 M 184 273.559 C 184 274.416, 184.457 274.835, 185.016 274.490 C 185.575 274.144, 185.774 273.443, 185.457 272.931 C 184.600 271.544, 184 271.802, 184 273.559 M 271 273.500 C 271 274.325, 270.475 275, 269.833 275 C 269.192 275, 268.928 275.261, 269.248 275.581 C 270.156 276.490, 274.127 274.015, 273.469 272.950 C 272.561 271.480, 271 271.828, 271 273.500 M 250.885 276.250 C 250.707 278.183, 251.145 281.448, 251.652 281.971 C 252.585 282.934, 253.682 279.787, 253.232 277.435 C 252.749 274.905, 251.086 274.065, 250.885 276.250 M 265 276 C 265 276.550, 265.450 277, 266 277 C 266.550 277, 267 276.550, 267 276 C 267 275.450, 266.550 275, 266 275 C 265.450 275, 265 275.450, 265 276 M 201 280.500 C 201 283.413, 201.548 283.595, 203.734 281.409 C 205.085 280.058, 205.112 279.684, 203.912 278.925 C 201.645 277.489, 201 277.838, 201 280.500 M 58.250 282.524 C 57.013 283.847, 56 285.170, 56 285.464 C 56 286.462, 62.890 286.007, 65.453 284.839 C 68.597 283.407, 68.695 282.384, 65.750 281.745 C 64.513 281.477, 62.825 281.001, 62 280.688 C 61.143 280.364, 59.535 281.151, 58.250 282.524 M 85 282.941 C 85 283.459, 85.450 284.160, 86 284.500 C 86.550 284.840, 87 284.416, 87 283.559 C 87 282.702, 86.550 282, 86 282 C 85.450 282, 85 282.423, 85 282.941 M 98.631 284.520 C 98.254 285.502, 97.360 285.968, 96.492 285.635 C 94.596 284.908, 94.557 286.700, 96.429 288.571 C 98.400 290.543, 100.365 290.393, 99.573 288.330 C 99.221 287.411, 99.374 286.387, 99.913 286.054 C 100.453 285.720, 100.531 284.859, 100.086 284.140 C 99.456 283.120, 99.136 283.204, 98.631 284.520 M 226.416 285.301 C 226.039 286.510, 225.242 287.813, 224.644 288.196 C 224.047 288.578, 223.944 289.253, 224.416 289.696 C 224.888 290.138, 225.475 289.938, 225.720 289.250 C 225.966 288.563, 227.029 288, 228.083 288 C 229.297 288, 230 287.306, 230 286.107 C 230 283.286, 227.239 282.665, 226.416 285.301 M 71.639 285.498 C 70.746 287.825, 70.807 288, 72.500 288 C 74.183 288, 74.373 287.137, 73.124 285.166 C 72.449 284.102, 72.149 284.169, 71.639 285.498 M 105 285.917 C 105 286.971, 105.563 288.096, 106.250 288.417 C 107.250 288.883, 107.250 289.117, 106.250 289.583 C 104.721 290.297, 104.596 292, 106.071 292 C 107.891 292, 109.505 289.631, 109.650 286.750 C 109.764 284.477, 109.373 284, 107.394 284 C 105.701 284, 105 284.561, 105 285.917 M 316.153 286.564 C 315.206 288.642, 315.270 289.413, 316.492 290.635 C 317.754 291.896, 318.219 291.924, 319.342 290.801 C 321.367 288.776, 323.011 285.344, 322.298 284.631 C 320.722 283.055, 317.255 284.146, 316.153 286.564 M 220.438 286.101 C 220.093 286.658, 220.116 288.325, 220.487 289.806 L 221.163 292.498 222.546 289.999 C 223.307 288.625, 223.945 287.211, 223.965 286.857 C 224.029 285.696, 221.079 285.064, 220.438 286.101 M 79 287 C 79 287.550, 79.900 288, 81 288 C 82.100 288, 83 287.550, 83 287 C 83 286.450, 82.100 286, 81 286 C 79.900 286, 79 286.450, 79 287 M 112 287 C 112 287.550, 112.450 288, 113 288 C 113.550 288, 114 287.550, 114 287 C 114 286.450, 113.550 286, 113 286 C 112.450 286, 112 286.450, 112 287 M 118.393 289.582 C 118.727 290.452, 119 291.770, 119 292.510 C 119 293.251, 119.588 294.452, 120.306 295.179 C 121.024 295.905, 121.910 297.288, 122.275 298.250 C 122.974 300.097, 126 300.707, 126 299 C 126 298.450, 125.550 298, 125 298 C 124.450 298, 124 297.550, 124 297 C 124 296.450, 124.900 296, 126 296 C 127.100 296, 128 295.550, 128 295 C 128 294.450, 127.392 294, 126.648 294 C 125.905 294, 123.884 292.650, 122.157 291 C 118.660 287.657, 117.485 287.215, 118.393 289.582 M 79 291 C 79 291.550, 79.900 292, 81 292 C 82.100 292, 83 291.550, 83 291 C 83 290.450, 82.100 290, 81 290 C 79.900 290, 79 290.450, 79 291 M 180.250 294.525 C 178.076 296.847, 177.211 300.004, 178.750 299.996 C 180.925 299.985, 186 295.798, 186 294.015 C 186 291.257, 183.066 291.518, 180.250 294.525 M 310.566 296.407 C 310.898 297.731, 310.713 299.667, 310.155 300.711 C 308.447 303.903, 310.280 305.406, 313.086 303.114 C 315.023 301.532, 315.253 300.891, 314.250 299.871 C 313.563 299.172, 313 297.565, 313 296.300 C 313 294.909, 312.399 294, 311.481 294 C 310.376 294, 310.126 294.656, 310.566 296.407 M 56 298 C 56 299.100, 56.563 300.029, 57.250 300.063 C 57.938 300.098, 57.487 300.534, 56.250 301.031 C 52.595 302.500, 53.861 305.063, 58.846 306.287 C 63.670 307.471, 65.721 304.682, 62 302 C 60.900 301.207, 60 300.176, 60 299.708 C 60 298.753, 57.454 296, 56.571 296 C 56.257 296, 56 296.900, 56 298 M 153 297.771 C 153 300.255, 155.338 302.274, 157.690 301.821 C 160.100 301.357, 160.543 298.387, 158.298 297.743 C 157.309 297.459, 155.713 296.903, 154.750 296.506 C 153.429 295.963, 153 296.273, 153 297.771 M 254 296.955 C 254 298.764, 259.212 303.133, 260.692 302.565 C 261.501 302.254, 262.352 302, 262.582 302 C 263.992 302, 262.646 299.023, 261 298.500 C 259.900 298.151, 259 297.446, 259 296.933 C 259 296.420, 257.875 296, 256.500 296 C 255.125 296, 254 296.430, 254 296.955 M 296 297 C 296 297.550, 296.450 298, 297 298 C 297.550 298, 298 297.550, 298 297 C 298 296.450, 297.550 296, 297 296 C 296.450 296, 296 296.450, 296 297 M 138.250 299.496 C 136.244 301.774, 136.733 303.217, 139.250 302.443 C 142.169 301.546, 142.154 301.565, 141.417 299.643 C 140.654 297.656, 139.901 297.621, 138.250 299.496 M 96 305 C 95.093 306.695, 95.240 307, 96.965 307 C 98.333 307, 99 306.345, 99 305 C 99 303.900, 98.566 303, 98.035 303 C 97.505 303, 96.589 303.900, 96 305 M 66.734 305.289 C 65.669 306.125, 65.355 307.524, 65.718 309.808 L 66.244 313.115 68.161 311.058 C 69.215 309.926, 70.510 309, 71.039 309 C 72.731 309, 72.067 306.106, 70.138 305.074 C 68.840 304.379, 67.809 304.444, 66.734 305.289 M 157.782 305.417 C 156.283 306.514, 156.296 306.704, 157.946 307.734 C 159.693 308.825, 162 307.785, 162 305.907 C 162 304.547, 159.388 304.243, 157.782 305.417 M 303.750 309.083 C 301.369 311.691, 301.552 313, 304.300 313 C 307.058 313, 309 311.264, 309 308.800 C 309 306.440, 306.016 306.601, 303.750 309.083 M 178 312 C 178 312.550, 178.450 313, 179 313 C 179.550 313, 180 312.550, 180 312 C 180 311.450, 179.550 311, 179 311 C 178.450 311, 178 311.450, 178 312 M 125.393 314.582 C 125.727 315.452, 126.007 316.464, 126.015 316.832 C 126.036 317.726, 127.965 314.707, 127.985 313.750 C 127.993 313.337, 127.277 313, 126.393 313 C 125.338 313, 124.995 313.544, 125.393 314.582 M 155.423 315.450 C 154.967 317.267, 155.467 318.558, 157.359 320.450 C 160.646 323.737, 161.007 323.667, 160.968 319.750 C 160.912 313.966, 156.629 310.645, 155.423 315.450 M 62 315.571 C 62 316.314, 64.686 319, 65.429 319 C 65.743 319, 66 318.100, 66 317 C 66 315.667, 65.333 315, 64 315 C 62.900 315, 62 315.257, 62 315.571 M 85 316 C 85 316.550, 84.100 317, 83 317 C 81.900 317, 81 317.351, 81 317.779 C 81 318.208, 81.900 319.207, 83 320 C 84.100 320.793, 85 322.242, 85 323.221 C 85 324.333, 85.749 325, 87 325 C 89.223 325, 89.692 323.489, 87.750 322.583 C 86.750 322.117, 86.750 321.883, 87.750 321.417 C 89.421 320.637, 89.333 318.191, 87.571 316.429 C 85.896 314.753, 85 314.604, 85 316 M 309 318 C 309 318.550, 309.675 319, 310.500 319 C 311.325 319, 312 318.550, 312 318 C 312 317.450, 311.325 317, 310.500 317 C 309.675 317, 309 317.450, 309 318 M 97 321 C 97 322.100, 97.450 323, 98 323 C 98.550 323, 99 322.100, 99 321 C 99 319.900, 98.550 319, 98 319 C 97.450 319, 97 319.900, 97 321 M 124 320 C 124 320.550, 124.450 321, 125 321 C 125.550 321, 126 320.550, 126 320 C 126 319.450, 125.550 319, 125 319 C 124.450 319, 124 319.450, 124 320 M 189.710 320.313 C 188.789 322.713, 190.107 326.896, 191.603 326.322 C 193.071 325.759, 193.416 323.249, 192.393 320.582 C 191.655 318.659, 190.393 318.532, 189.710 320.313 M 93 322 C 93 322.550, 93.450 323, 94 323 C 94.550 323, 95 322.550, 95 322 C 95 321.450, 94.550 321, 94 321 C 93.450 321, 93 321.450, 93 322 M 236 321.893 C 236 322.384, 236.675 323.045, 237.500 323.362 C 238.414 323.712, 239 323.363, 239 322.469 C 239 321.661, 238.325 321, 237.500 321 C 236.675 321, 236 321.402, 236 321.893 M 240 326.059 C 240 326.641, 240.450 326.840, 241 326.500 C 241.550 326.160, 242 325.684, 242 325.441 C 242 325.198, 241.550 325, 241 325 C 240.450 325, 240 325.477, 240 326.059 M 255 333.500 C 255 334.875, 255.412 336, 255.917 336 C 257.088 336, 257.842 333.872, 257.246 332.250 C 256.450 330.085, 255 330.892, 255 333.500 M 176 366 C 176 366.550, 176.450 367, 177 367 C 177.550 367, 178 366.550, 178 366 C 178 365.450, 177.550 365, 177 365 C 176.450 365, 176 365.450, 176 366 M 242.185 366.750 C 242.403 367.903, 243.623 368.607, 245.758 368.813 C 249.139 369.140, 249.841 368.241, 247.800 366.200 C 245.873 364.273, 241.791 364.673, 242.185 366.750" stroke="none" fill="black" fill-rule="evenodd"/>
</svg>